<svg xmlns="http://www.w3.org/2000/svg" fill="none" viewBox="0 0 30 300">
  <path fill="#000" d="m21.3 12.7-.1.2s-.1.1 0 .2c-.2 0-.2 0-.3.2v1c.1 0 .2 0 .2.2l-.2.1v1c.1.2 0 .5 0 .8a8.1 8.1 0 0 1-.3 2.2l-.3.6-.2.5-.3.5-.3.4-.3.6a5 5 0 0 0-.4.6l-.2.1-.2.1V22.3c-.2 0-.3 0-.5.2l-.4.3a1 1 0 0 1-1 .4 3 3 0 0 1-.2.1H16l-.2.2c-.1 0-.2 0-.2.2l-.6.2h-.5a5 5 0 0 1-.9-.1.5.5 0 0 1-.3-.3c-.1 0-.3 0-.4-.2a.6.6 0 0 0-.5-.2v-.3l-.3-.1-.5-.5-.4-.5v-.2c0-.2 0-.3-.2-.3l-.2-.3v-.1h-.1l-.3-.3v-.2l-.1-.2-.2-.1-.2-.4-.1-.5-.2-.3-.1-.3v-.3h-.3v-.8l-.2-.6.1-.3.1-.3-.1-.3v-1.1l-.2-.5V14c.1-.2.2-.3.1-.4l-.2-.1-.1-.2.4-.5.2-.8-.2-.1.1-.4a17.1 17.1 0 0 0 .4-.5v-.4l.2-.3.1-.4.2-.5.3-.3a2.2 2.2 0 0 0 .3-.5l.1-.2.3-.1v-.3l.4-.2c0-.2.2-.3.3-.4l.2-.5H12.3c.2 0 .4-.2.5-.3l.5-.4h.1l.1-.2c.3 0 .6-.2.9-.4h.7l.2.2h.3l.4.1.2.2H16.5l.2.1.4.1.3.2.3.2.4.2V7h.6v.3h-.1v.2c.1 0 .2 0 .1.1l.2.1h.2v.7s.2 0 .2.2c.1 0 .2.1.1.2l.3.3.1.3.2.3.1.4.2.4.2.2v.8l.1.2.2.1v.3l-.2.1.1.2.1.2h.5Zm-3.4-5.4-.4.2c-.1 0-.2.1-.1.3.2 0 .3-.2.4-.3v-.1c.1 0 .1 0 0-.1Zm-.5-.5c-.1 0-.2 0-.3-.2h-.5c0 .2 0 .4.2.6l.2.5s.1-.2 0-.2L17 7l.3-.3Zm.6.9h-.2a2.5 2.5 0 0 1-.5.3l-.1.2.4-.1.2-.1v-.2l.2-.1Zm.8 1-.2-.3h-.2l-.2.1v-.1H18.4v-.5l-.2-.1H18l-.2.4h-.4l-.1.2h-.1s.1.1 0 .1v.1s.1.1.2 0l.2.1c-.1 0-.2.1-.2.3h.2l.2-.1v-.3l.1-.1.5.1c0 .1.2.1.4 0Zm.3.7c.1-.1 0-.3 0-.4-.1 0-.2 0-.2.2h-.2v.1l-.2.1v-.2c0-.2.2-.3.3-.3v-.1h-.2l-.1.1h-.1l-.2.1c0 .1-.1.1-.2 0l-.2.3-.3.3V9.9l.2-.1.2-.1c.3.1.5.2.6 0h.2v-.3h.4Zm0 .2H19l-.6.5a1 1 0 0 1-.5.3v.1l-.2.1V11a530.4 530.4 0 0 0 .7-.6l.3-.2.4-.2s.2-.1.2-.3ZM18 10a10.5 10.5 0 0 1-.2.3h.1l.1-.3Zm1.8.3V10l-.1-.2-.1.3v.4h-.2c0 .1 0 .2-.2.2l-.1.2h-.2a6 6 0 0 0-.3.4h-.3v.2l-.2.2v-.3h-.1l-.2.1V12.1h.3V12l.2-.1.2-.2v-.1l.3-.1a.9.9 0 0 1 .2-.3h.1l.1-.2.4-.2.2-.5Zm.4.6h-.4l-.2.2-.2.2-.3.2a8 8 0 0 0-.5.5c-.1.2-.3.3-.6.4V12.6h.1l.1-.2.2-.1.2-.1.2-.1v-.2l.5-.2.1-.2h.2l.1-.3h.2l.3-.4Zm0 .7-.3.3c-.2 0-.3.1-.4.3-.1 0-.2 0-.2.2l-.3.1c0 .2-.2.3-.4.4h.3l.3-.2h.3v-.2H19.6l.2-.2.2-.2.2-.2c0-.1 0-.2-.2-.3Zm-1 .8c-.2 0-.3-.1-.4 0h-.2c0 .2-.1.3-.2.3h-.2l-.1.2h-.1l-.2.4v.2H18v-.2l.1-.1a153.6 153.6 0 0 1 1-.8ZM13.5 7h-.3a2.5 2.5 0 0 1-.5.3l-.1.2H12.4c0 .2 0 .2-.2.3L12 8c-.1 0-.2 0-.3.2l-.2.2h-.1c0 .2.1.2.1 0h.3c0-.1 0-.2.2-.2l.5-.4.4-.4h.2l.2-.2.1-.2.2-.1Zm-.4 1-.3-.1-.2.2c0 .1-.2.3-.5.3l-.2.3-.1.1-.3.2-.2.3h-.1v.1H11l.1.1.1.1.3-.2h.2c0-.2.2-.3.3-.5h.4c0-.1 0-.2.2-.2v-.2h.3l.1-.2V8h.2Zm-1.7.9h-.3v.2a1.4 1.4 0 0 0 .3-.2Zm6.3 7-.2.2-.2.1.4-.1v-.2ZM11 9.3h-.2v.2s.2 0 .2-.2Zm9.6 5v-.4l-.1-.3h-.1c0 .1-.1 0-.2 0l-.1.3-.2.1v-.2c0-.3.2-.3.4-.3v-.1l.2-.2h-.2V12.5H20v-.2h.2v-.2l-.2.1h-.2c0 .2-.1.2-.2.2h-.1l-.2.1h-.1l-.3.4-.3.2-.1.2h-.3a2 2 0 0 0-.2.4l-.3.1-.1.4v.3c0 .2 0 .3.2.3h.3c-.3.1-.5.3-.5.4l-.2.3c.1.1.2.1.2 0l.3-.1h.2c0-.1 0-.2.2-.2h.2l.1-.1.1.1h.2v.3h-.4c0 .1 0 .1-.1 0l.1-.2H18.2v.2l-.2.1V16l.2-.2h.1l-.1.2a13.1 13.1 0 0 0-.7.5l-.1.2v.4s-.1 0 0 0l-.1.2h.2v.2h-.1c0 .1.1.1.2 0h.2l.2-.2.2-.1c.1-.3.3-.4.6-.4 0-.1.1-.3.3-.3.1-.1.3-.2.5-.1l.3-.3c.1-.1.3-.2.4 0-.3 0-.5.2-.7.3-.1.2-.4.3-.6.3 0 .2-.1.3-.3.3l-.3.1-.1.2H18v.3h-.2l-.2.2-.1.1-.1.3h-.2v.4c0 .2 0 .3.2.4l.1-.2s.1-.1.2 0l-.1.2s-.1.1-.2 0l-.1.3h-.1l.1.3h.2l.1-.3.3-.2h.1l.2-.2v-.1l.3-.2.2-.1c0 .2-.2.4-.3.5l-.2.1-.2.2a32.1 32.1 0 0 0-1 1.3h.2l.1.1-.2.3s-.1 0 0 0v.3h.4c0 .2-.2.3-.3.3H17v.2l-.2.1v.3l-.2.2v.2h-.1c.2.2.3.2.3 0l.2-.2.2-.1h.1V22l.1-.1.1-.2.1-.2v.2h.2l-.2.1v.1c.1 0 .3 0 .4-.2l.4-.5H18.1v-.1l.2-.2.1.2v.1c.2 0 .2-.1.3-.2l.1-.2V20.5c0-.2-.1-.2-.2-.1h-.1v.4l.1.2-.1-.1h-.2v-.3l-.3.1v.1l-.2.1c-.3.3-.4.3-.4 0l.3-.1.2-.1.2-.2h.3l-.2-.1v-.1l.2-.2h.2c0 .2 0 .2.1.1h.3l-.1-.1h-.2l.3-.2.3-.2v-.1l.3-.2.1-.1.2-.1.5-1.3.2-1.3c-.1 0-.1 0 0 0v-.3l-.2.1H20a3.6 3.6 0 0 0-.3.4h-.1l-.2.3h-.2V17a325.8 325.8 0 0 1 .7-.4l.1-.2c.1-.1.2-.2.3-.1l.1-.1-.2-.2v-.2h.2V15H20.2l.4-.1-.2-.3c0-.2.1-.3.2-.3ZM11 10l-.2-.1h-.1H11Zm6.4 2-.1-.4v-.3l-.1-.2V10c-.2 0-.2-.2-.2-.4v-.4c-.2 0-.2-.1-.2-.2V8.3c-.1-.1-.1-.2 0-.2l-.2-.3v-.5l-.2-.1a2.8 2.8 0 0 1-.1-.7H16l-.1-.2h-.4l-.3-.2H15l-.3.1-.3.2-.4.6c0 .3-.2.5-.3.8.2 0 .3 0 .3.2l-.2.1-.1.1c0 .1 0 .2-.2.2v.2a46.2 46.2 0 0 1-.3 1.8l.3.1-.3.2v.2c.1.1.1.2 0 .2a9.6 9.6 0 0 1 0 1.2v.5c-.1.2-.2.3-.1.6V13.8a14 14 0 0 0 0 1.7A8 8 0 0 1 13 17V18.4c0 .2.1.3 0 .4v.3l.1.2v.4l.1.2-.1.5a13.8 13.8 0 0 1 0 1l.2.1c0 .4.2.8.4 1.1l.8.8c.6-.1 1-.3 1.4-.6.4-.4.6-.9.7-1.5 0-.3 0-.5.2-.7v-.8h-.1l.1-.5.2-.5v-.2h-.3a1 1 0 0 1-.3-.1v-.1l.1-.2.1-.1.2-.2h.1v-.3l.2-.2V17.1h-.5v-.3h.3v-.1h-.2l.2-.2.1-.2.1-.3v-.2l.2-.2-.2-.2v-.5l.1-.2v-.8l.1-.2v-.5l.1-.6v-.4ZM13 9a2 2 0 0 1-.3.2h-.3l-.1.2-.2.2h-.3v.2h-.4l-.2.4h-.3l-.3.1-.1.2h.4l-.3.2-.2.1v.2H10l-.1.2h.3l.3-.2v.2l-.2.2-.3.1-.2.3-.2.1v.3h.2l-.1.2-.1.2v.3h.2l-.3.2v.2l-.1.2V13.7l.2.1.2-.2h.1l.2-.2.1-.2c.1.1 0 .2 0 .2l-.1.2h.2l.3-.4v.3h-.3l-.2.3H10l-.2.3c0 .2-.1.2-.2.2v.5l-.1.2v.4l.3-.1.2-.1-.3-.3v-.3l.1-.1.2-.1.3-.1V14h.2l-.2.3.3-.2v-.4l.1.2v.1h.2c0-.1 0-.1.1 0v-.4h.4v-.1l-.2-.1.3-.2v.1h-.2c0 .2.1.2.2.2l.2-.2.3-.2.5-.2v-.2l.2-.3c0-.1-.1-.2-.2-.1v.1H12c0 .1-.1.1-.2 0l-.2.2V13h-.2l-.1.1h-.1l-.2.2-.2-.1h-.1v-.4h.8c0-.1-.1-.2 0-.2a93.2 93.2 0 0 1 .3-.2H12.2l.3-.3a581.7 581.7 0 0 0 .2-.6v-1.3l.2-.5c-.2 0-.3 0-.3.2l-.3.2v-.4H12.5v-.1l.2-.2.1-.2v-.3Zm3.7 9.3h-.2.2Zm-5.5-5v-.3l-.2.1.2.1Zm1.4-.1h-.1c0 .1-.1.1-.2 0l-.1.2H12v.3h-.2v.1l-.2.2-.2.1h-.2v.3l-.2.1-.2.2H10.5l.3.2c0-.1.1-.2.3-.2l.3-.1.2-.4h.3l.2-.2.3-.2h.2V13Zm-1.9 1.4h-.4.4Zm-1.6-1.3h-.3.2Zm3.6 6-.1-.1v-.8a195.2 195.2 0 0 0 0-1.5l-.3.1h-.2.3c.2-.3.3-.6.2-.8v-2l-.2-.1v.2l-.2-.1H12v.3l-.2.3h-.2l-.4.4s-.1.1-.2 0l.3-.2c0-.2.1-.2.2-.2h.2v-.2l.1-.1c-.3 0-.5.2-.7.4a1 1 0 0 1-.5.3c0 .2-.2.3-.5.4 0 .2-.2.3-.4.4-.2 0-.3.2-.4.4h.6V16l.2-.3c0 .1.1.1.2 0l.1-.2.1-.1v-.1c.2 0 .2.1.2.2v.1l-.2.1c.2 0 .4-.1.4 0l.1.1-.5.2-.2.3-.4.2-.1.1c0 .1 0 .2-.2.2l-.1.2.3.3.1.1H10.2v-.2.3l-.3.2V18c0-.1.1-.1.1 0h.2v-.4l.3.1.2.2v-.2h.3v-.2c-.1 0 0-.1 0-.1h.3v-.2h.3l.2-.2h.2l-.2.2h-.2c0 .2-.1.3-.2.3l-.1.1.1.1h.1-.3l-.2.1v.2h-.2v.2h-.1l-.3.2.2.1H10.9v-.3l.1-.2v.2l.2.1-.1.3-.1.2-.6.2c-.1 0-.3 0-.3-.2h.1v-.3h.2v-.2c-.3.1-.4.2-.4.4v.3l.3.4v.3l.2-.2h.3v-.2l.1-.3h.1v.2h.4l.1-.2h.1c0-.2.2-.2.3-.2a8.8 8.8 0 0 0 .3-.3c.2 0 .3.1.3.3H12c0 .1 0 .2-.1.1h-.1v.3h.2l-.2.1v.2l-.1-.1s-.1 0 0-.1h-.3s0 .1-.2 0l-.3.4-.4.2.2.1v.2h.5L11 20h.7l.2-.2h.2l.3-.2v-.1l.1-.3h.1Zm-2-1-.1-.2h-.2V18.2l.2-.2h.1Zm-.4 0H10 10.3Zm.7 1.3-.2-.2.2.2Zm2.8 4-.1-.2-.1-.1-.1-.2v-.3h-.2v-.1l-.3-.4-.1-.4v-.4h-.3c0 .2-.2.2-.4.2 0-.1 0-.2-.2-.2h.5c0-.2 0-.2.2-.1v-.6h-.2v-.3l.1-.2c.1 0 .1-.1 0-.2.1 0 .1 0 0-.1h-.5l-.1.3h-.3c0 .2-.1.3-.3.3a3 3 0 0 0-.4.1l.2.4c.1.2.2.3.1.4l.4.4.4.4.4.4.5.3.3.3.5.2Zm4.6-14h-.1l-.3.1h.2v-.2h.2Zm2 3.8H20l-.2.2H19.6v.2l-.3.1-.2.2v-.3h.2a93.2 93.2 0 0 1 .8-.6l.2.2Zm-.3-.6-.1.1v.1a4 4 0 0 0-.6.3l-.4.2a1 1 0 0 1-.4.4l-.2.1v.1a1 1 0 0 0-.2.2H18v.3l-.1-.2v-.1c.2 0 .3 0 .3-.2s.2-.3.3-.4h.2v-.1c.2 0 .3-.1.3-.2l.3-.2.2-.3h.4v-.1h.2Zm.2 2H20l-.2.1-.1.1.3-.3H20.3Zm-.6-.4c0 .1 0 .2-.2.2h-.3a5 5 0 0 1 .2-.3H19.7Zm.6.8H20v.2l-.1.1h-.2l.3-.2h.2Zm-1.3-1s-.1.1-.2 0h-.1H19Zm.7 1.5-.2.1h-.1l.2-.3v.2Zm-1.1-1.3-.2.2v-.2h.2Zm.4.5c-.1 0-.2.2-.1.3-.1-.1-.2-.1-.2 0h-.2l.2-.3h.3Zm.3.4-.2.1c0-.1 0-.1 0 0h.2Zm0 .5-.1.3H19v-.2l.2-.2v.1Zm-.4.6H18.6l.1-.1h.2v.1Zm-.5.3H18v-.2l.1.1h.2Zm.9.6c0 .1 0 .2-.2.2l-.1.3c-.1-.1-.1-.2 0-.2l.1-.3h.2Zm-7.1-7.4-.2.2v.3a5.6 5.6 0 0 0-.6 0l.3-.3.5-.2Zm8 8.1v.1l-.1.2c-.2 0-.4.1-.5.3h-.3l-.2.1a1 1 0 0 0-.2-.2l.2-.2h.1l.2.2.3-.1c-.1-.2-.2-.2-.3-.1h-.1l.3-.3h.3c0-.1 0-.2.2-.3h.2v.3Zm-8.6-7.5h-.1c-.1.1-.2 0-.2 0H11.6Zm6.6 6.3-.3.3h-.1v-.2h.4Zm.5 1.1v.1c-.2 0-.2 0-.2.2v-.3h.2Zm-7.3-7h-.2v-.3.3h.2Zm-.3-.1c-.2.1-.3.2-.5.1h.2c0-.1 0-.1.1 0l.2-.1Zm0 .4a1 1 0 0 1-.3.2c-.1 0-.2 0-.1-.2 0 .1 0 .1 0 0h.4Zm7.9 8h-.1l-.2.2.2-.2v-.2l.1.1Zm-7.3-7-.3.1h.1V12l.1-.1v.2Zm.4.6-.2.1.2-.1Zm6.6 6.7a2 2 0 0 0-.3 0h.2Zm-8.4-7.5H10c0 .1 0 .1-.1 0l.3-.1Zm8 7.6v.2c-.1 0-.1.1 0 .2l-.3.1v.1c-.2 0-.2-.1-.1-.1l.2-.2v-.2l.3-.1Zm-7.6-6.6-.1.2h-.1V13h.2Zm1.8 2V15.2 15h-.2l.2-.1Zm-.1.2H12l-.1.1.1-.2.3.1Zm5.3 5.4v.2h-.2c-.1 0-.1-.1 0 0l.2-.2ZM12 15.4H12v-.2a80.7 80.7 0 0 0 .2.2Zm5.8 6.2h-.1l-.2.1h.1l.2-.1Zm-6.5-6h-.2l-.2.1.2-.1s.1 0 0-.1h.2Zm.6 1-.2-.2v-.1h.2v.3Zm-1.1-.2h-.4.4Zm0 .8-.2-.1V17c.1.1.2.1.2 0v.2Zm-.5-.3h-.2v-.2h.2v.2Zm1.8 1.1-.3.3h-.3v.3c-.2 0-.3 0-.3.2v-.7H11.6a1 1 0 0 1 .3-.2h.1l.2.1Zm.2 2.7v.4-.4ZM20.1 53.6h-.5l-.2-.1s-.2.1-.2 0h-.7l-.1.1h-.6l-.3-.1-.3-.1H17a2 2 0 0 0-.5 0l-.3.1-.5-.1H13.9l-.2.1h-1.1l-.3.1h-.5l-.4.2a3 3 0 0 1-.5 0h-.4c-.1 0-.2-.1-.2-.3l1.4-.4a3 3 0 0 0 1-.5c0-.1-.1-.2 0-.2 0-.1.1-.1.2 0 0-.2 0-.3.2-.4h.2v-.3l.1-.3v-.2h-.2V50.8l.2-.5V50l-.1-.2v-.3l.2-.3V49l-.2.2H13l.1-.2.1-.1.1-.2v-.2l.3-.5c0-.3 0-.4-.2-.5v-.2h.1l.1-.7v-.8c0-.1-.1-.2-.3-.2v-.3c.3-.3.3-.6.3-1l-.1-.1v-.8l-.1-.2V43c-.1-.1 0-.1 0-.2a15.6 15.6 0 0 0 0-2.3l-.2.2s-.2 0-.3.2h-.1v-.4l.3-.1.2-.3v-.4l-.2.2-.3.1v-.2c0-.2.1-.3.2-.3l.1-.2h.2c0-.3-.1-.4-.2-.4l-.1-.2.1-.3-.1-.4-.3-.2h-2.1v-.5l.5-.2h1.4l.9-.1 2-.5c.4 0 .7-.2.9-.3l.4-.6c.3 0 .5 0 .5.2l-.1.5v.4h.3l.2-.3h.2v-.1.4l-.3.2-.2-.1H17h.2c0 .1 0 .1.1 0-.1.2-.3.3-.3.5V39.9l.1.2v.3h.2l-.3.6v.5l.1.1v.3c-.1.1-.1 0-.2 0v.2h.1l-.2.3.2.4V44h.4l-.2.3-.2.4v.3l-.1.2v.7l.1.2.2.1c-.2.1-.2.2-.2.3v1.2l-.2.1v.1c.1 0 .2 0 .1.2v2.7l.2.2V51.2l-.1.2v.4c0 .1.1.2 0 .4.2 0 .3.2.3.2h.3l.1.2v.3h.3s-.1-.1 0-.1v.1l.1.2h1c.2 0 .5 0 .7-.2l.2.2v.5Zm-1.9-.8-.2-.2h.1l.1.1v.1Zm-4.1-15.4h-.4s-.2.1-.4 0l.1.4.1.2h.2v-.3c.3 0 .4 0 .4-.3ZM17 40a.6.6 0 0 1-.2-.5v-1l-.1-.2v-.7l-.2.2h-.3l-.1.3h-.4.2l.2-.2-.3-.1-.2.1v-.2h.4l.3-.1h.2l.2-.4a2.8 2.8 0 0 0-.4.2h-.1V37H16.6l.1-.4s.1-.1 0-.2c-.1.2-.4.3-.6.4l-.2.2h-.2l-.3.2-.2.1-.1.1s-.1.1-.2 0l-.1.3h-.2l-.2.3-.2.1c0 .2-.2.4-.4.5v.2l.3-.1h.3l.2-.4h.3V38h.3l.1-.2h.1l-.3.4a6.4 6.4 0 0 1-.7.5l-.1.1c-.2 0-.3.1-.3.3l-.2.3h.4l.2-.3.2.1h.1V39H14.8l.1-.2v-.3c.3 0 .4.1.4.2h.1l.2-.2.2-.1c.1 0 .2 0 .1.1l.1.2h-.7c0 .2-.2.4-.5.5a1 1 0 0 0-.5.4c-.3.1-.5.4-.6.6V40.6l.1.3v.7l.2-.2.4-.1-.2-.2.2-.2h.4l-.2-.1-.2-.1.1-.1v-.2h.2a8.3 8.3 0 0 0 .3.3l.2-.1a147.8 147.8 0 0 0 .7-.5h.3V40h.2V40.2l-.3.1-.3.4h-.5v.3l-.2.1h-.4l-.3-.1.2.2.2.1h.7v-.1c.2 0 .2.1.2.2h-.2l-.3.1-.4.5c-.1.2-.3.3-.4.2h-.4l.1.3-.2.3h-.1v.4l.2.1.4.2-.2.1-.2.2v.1l-.2.1v.4c.1 0 .2-.1.2 0V45.1l-.1.1s-.1 0 0 .2v.2h.1c.2 0 .3-.1.5-.3l.6-.6h.2l.2-.3.3-.2.4-.3.2-.3H15.6l-.1.1v.2c-.2 0-.3.2-.3.2h-.1c-.1.1-.2.2-.3.1l.2-.2h.2c0-.2.1-.2.2-.2v-.1c0-.1 0-.2.2-.2h.2l.2-.2h.3l.1-.2.2-.1c.1 0 .2 0 .1-.2v-.3l-.2-.1V42h-.2l-.4.1v.1l-.3.1-.1.1v.2h.1l-.3.2-.1.2-.2-.1-.2.2v.1l-.1.1v.1l-.3-.1v-.1h-.2v-.2h.1l.1-.1h.2c0-.1 0-.1.2 0v-.1h.2l.2-.1h.1v-.4h.2a1 1 0 0 0-.2-.2h.6l.3-.1v-.2h.3l.2-.4v-.3h-.2l-.2.2-.1.2H16c0-.1.1-.2.3-.2l.2-.2.2-.3v-.4l.1-.1V40l.2-.2Zm-2 .9-.2-.1c0-.1-.1-.1-.2 0h.2l.2.1Zm1.7 2.6-.2.2.2-.2Zm-1.6-1.7H15l.2-.1c0-.1-.2-.2-.3 0l-.1-.2h-.3l.1.2h.2l-.1.1h-.2V42L14 42H14v.2s-.1.1 0 .1h.2V42h.3c0 .1 0 .1 0 0l.3-.2h.3v-.2Zm1.8 8.6h-.2l-.2-.6v-.4h-.2l-.1.3v-.5h.3v-.6l.2-.4v-.3l-.2-.2h-.1v.3l-.2-.1.1-.2h.2v-.3l.2-.2h-.3l-.2.2.1-.3h.2v-.5l-.2.1.2-.2.2-.3V45l-.2-.1v-.1h.2l-.1-.2h-.3s0 .1-.2 0l-.3.4-.1.1-.2.1v.1c-.2 0-.2.1-.3.2l-.2.1-.3.3a4.8 4.8 0 0 0-.6.5l-.1.4h.2l-.2.2v.4l-.2.2.2.2v.7l.3-.2a4.3 4.3 0 0 1-.3.4v.4l.1-.1H14.7l-.2-.2-.1-.1h.3l.3-.1-.1-.1-.1-.1h.3l.1.3H14.9c0 .2-.1.3-.3.4-.1 0-.2 0-.2.2l-.4.3c-.1.1-.2.2 0 .4h.2l-.1.2c0 .2.2.2.3.1h.3l-.2.2h-.3a7.4 7.4 0 0 1-.4.5v.5l.5-.2.2.1h.1l.2-.2.1-.1-.1-.1h-.1s0-.2.1-.1h.2c.1-.1.3-.1.4 0 .2 0 .3-.1.4-.3h.2l.4-.2-.2.4-.4.1h-.2v.2h.2l.1.1v.2c0 .1 0 .2-.2.3a237.4 237.4 0 0 0 0-.3h.2l-.3-.2H15l-.1.2-.1.2s.1-.1.1 0h.2l-.1.3h.3v.2H15l-.2.4h-.3a7.9 7.9 0 0 0-.5.5h.8a1.1 1.1 0 0 1 .4-.3h.1l.1-.2v-.1l.2-.1.4-.2V52l.2-.2h.3c-.2.1-.2.2-.2.3h.4v-.3c-.2-.2-.2-.3-.1-.3l.1-.1v-.1l-.1-.1-.2.1-.3.1v-.2l.3-.1.3-.2-.1-.2v-.3H17Zm.3 2.4-.2-.2v-.2h-.3l-.3-.2v.2h-.2l-.4.3-.2.2c0 .2.2.2.3.2h.2l.3-.1h.4l.2-.1.2-.1Zm-2.4-.8-.2-.3-.5.2-.2.2-.1.3h.8l-.1-.3c-.1 0-.1 0 0 .1 0 .1 0 .2-.2.2l-.1-.4H14.8Zm-.9.7v-.2h-.1v.1h.1Zm2.6-14.1h-.2l.2-.2v.2Zm-1-.2v.2h-.1v-.1h.2Zm1.2.9-.4.2-.3.2-.2.2-.2.3h-.2l.1-.2.3-.1c0-.3 0-.4.4-.5v-.1c0-.1.1-.2.3-.2l.2.2Zm-1.9-.4-.1.2v-.3l.1.1Zm1.5 2.2H16l.1-.2.2-.1v.1l.1.2Zm-.4.1h-.4.2l.1-.1.1.1Zm0 .8h-.3H16Zm.5.7h-.2c.1-.1.2-.1.2 0Zm-.4.1-.2.4h-.2c0 .1-.1 0-.1 0h.1c0-.2.1-.2.2-.3h.2Zm-.8-.3-.2.1h-.2.1l.2-.1h.1Zm0 1.4v-.3.2Zm1.1 1c0 .2-.2.3-.3.3l-.2.1c.2 0 .3-.2.3-.3l.2-.2Zm-1.5-.4h-.3l.1-.2c-.1-.1-.1-.2 0-.2h.2-.1v.2l.1.2Zm-.3.3h-.1l-.2.1.3-.1Zm1.7 2.1-.2.1.1-.2.1.1Zm-.3.3c0-.1 0-.1 0 0h-.2c-.1-.1-.1-.2 0-.1 0 0 .1 0 0-.1l.2.2Zm.6.8c0 .1-.2.2-.5.2.2 0 .2-.1.3-.2h.2Zm-.4.3-.2.2h-.1c.1 0 .2 0 .1-.2 0-.1 0-.2-.2-.2l-.3.4h-.2l.1-.1.1-.1V48h.4l.1-.1v.2h.2Zm-.3.3-.1.2h-.2l.1-.1h.2Zm-.4.3v.2l-.3.1.1-.1.2-.2Zm.6.4-.2.2v.1l-.3.1v.1h-.3l-.1.1v-.1l.1-.2h.2l.2-.1h.1l.1-.2h.2Zm0 .5-.4.2v-.1l.2-.1h.1Zm-1 .1-.1.2h-.3l.2-.1.3-.1Zm-.5-.1-.2.1.2-.1Zm.6.6-.3.2v-.2c.1 0 .2 0 .2-.2l.1.2Zm1.7 2.1-.5.2.1-.2c.1 0 .1 0 0-.1.1 0 .2.1.2 0l.2.1Zm-1.3-1.1-.3.2v-.2H15.5Zm-1-.3c.1 0 0 .1 0 .1h-.2l.2-.1ZM20.3 70l-.2.3v.3l.1.2v.1l-.1.4v1.2l-.1.2-.1.2v.2c-.1 0-.1.1 0 .2l-.1.1v.2l-.2.3-.3.6h-.2l-.1.2v.2l-.2.1h-.2l-.2.2-.1.1-.1.2-.8.2-.4.2-.5.2h-.6a10.3 10.3 0 0 0-3 1.2c-.3.1-.6.3-.8.6H11.8a1 1 0 0 0-.3.4c0 .2-.2.3-.3.4v.2l-.1.1-.1.3h-.1v.8h.3l.4-.3h.7l.4.1.3.1h.1l.2.1h.6l.5.2h.4c.2.1.3.1.4 0h.5c.2 0 .4 0 .5.2h.5a5.4 5.4 0 0 0 1.4-.3l.5-.1.3-.3c.3-.3.4-.5.4-.7V78l.1-.5h.4v.7c.1.2.2.4.1.7a24.4 24.4 0 0 1-.2 1.9h-.1l-.1.2.1.2v.3s-.1 0 0 .2l-.3.1-.1.2v.1l-.2.1V82.4l-.2.1v.3l-.3.3-.6.4-.5.3a1 1 0 0 0-.2 0l-.1.1h-.7l-.2.1-.2.1-.3-.2c0-.2-.1-.2-.3-.3h-.3l-.1-.2h-.4v-.2l-.1-.4H14.2c0 .1 0 .1-.1 0l-.1-.2v-.2l-.3-1c-.2-.3-.4-.5-.8-.7v-.1h-.3l-.4-.1H12l-.5.1s-.1.1-.2 0v.3c-.2 0-.3 0-.3.2l-.2.4-.1.4v1l-.4.1V83l-.2-.2v-1.1c0-.4 0-.8.2-1.1v-.8l.3-.6.2-.3v-.3c0-.2 0-.3.2-.4a5.4 5.4 0 0 1 .5-.6l.3-.3.3-.3.4-.3.4-.3.2-.2a11.7 11.7 0 0 0 2.6-1.5l.1-.2v-.1l.4-.5c.2-.1.3-.3.3-.6v-.5l.2-.4.2-1.5v-1.6l-.1-.5v-.4a1 1 0 0 1-.2-.6c0-.2-.1-.4-.3-.4v-.5l-.2-.1v-.2l-.4-.3a1 1 0 0 0-.6-.2 1 1 0 0 1-.6 0 1 1 0 0 0-.7 0c0 .1-.1.2-.3.2l-.3.2-.4.1-.2.3-.8.5-.6.6v.1l-.1.2-.3.2-.3.3-.1.4-.1.3v.7c0 .2.2.4.5.4.7 0 1.3.2 1.6.5.4.4.7.8.8 1.3l-.3.7-.4.5a2 2 0 0 1-.5.4h-.6c-.4-.2-.8-.5-1-.9l-.6-1.3v-.5l-.1-.5.2-1.3c0-.4.2-.8.4-1l.5-.7.4-.5.4-.3.4-.4 1-.5a5 5 0 0 1 1-.5h1.6l.2.1h.3c0 .1.1.1.2 0h.2l.3.1h.7l.5.3.5.3v.4l.3.2.3.5.3.2v.5l.2.1V68.5c.1 0 .1.1 0 .2h.2l.2.1c0 .2-.1.3-.2.3l.2.3.2.4v.2h.2Zm-2.8-3.5h-.3H17.5Zm-.4 0H17s-.1.1 0 .2l.1-.2Zm-.2-.3h-.6l.1.1.2.2.2-.2v-.1Zm.6.6h-.2l-.2.2c-.1-.1-.2-.1-.2 0l-.1.2h.3l.2-.2.2-.2Zm2.2 3.8h-.4v-.2l.2-.2v-.4l-.1-.2h-.5l.2-.2V69h-.4l.2-.3v-.4h-.2V68h-.2c.1-.3.1-.4 0-.4h-.2a2 2 0 0 0-.2-.5h-.3V66.9l-.2.1v.1l-.3.2c-.1 0-.2 0-.2.2l.6-.3-.1.1h-.2v.4h-.1l-.1.3v.3c.2 0 .3.1.2 0h.1c0 .2-.1.3 0 .4h-.1v.6H17.6l.2.1h.5s-.2.1-.2 0l-.3.2c0 .1 0 .1-.1 0l-.3.1-.1.4h.5c.1-.1.2-.1.2 0v.3l.1-.1.3-.1v-.2l.1-.2h.2l.1-.1.1.2-.3.1-.2.3h-.3v.3h-.3v-.1l.2-.1h-.4l-.3.3h.4l-.3.3v.1l.3.1.2.1-.2.1h-.2l-.2.2a2 2 0 0 0-.2.3v.3h.2v.4l-.2.2-.1.2v.2l.1-.1a6 6 0 0 0-.3.3v.3l-.1.2v.1l.1.2h-.2v-.2V74.2a2 2 0 0 0-.2.2l-.1.1-.1.2H16c0 .1 0 .2-.2.2l-.3.2a5 5 0 0 1-1 .7l-.8.4h.4c.2-.2.3-.2.5-.2 0-.1.1-.2.2-.1l.4-.1.2-.2h.2l.2.1h.4l.5-.2.5-.2-.2-.1H17V75h.2l.3-.5.2-.3H18v-.1l.1-.1.1.1.2.1V74l.2-.2h.2l.2-.2v-.2c.4-.5.6-.9.6-1.3v-1.5Zm-.8 3.5h-.3v.2h-.3l-.1.1v.2h-.4v.5h-.4l.9-.3c.3-.2.5-.4.6-.7Zm-.8.4-.2-.3-.1.2v.1H18Zm-.4.2h-.2s0 .1 0 0h.2ZM11.6 71h-.3l-.2.2h.2l.3-.2Zm.6.5c0-.2 0-.2-.3-.2l-.3.2h-.2l-.1.2v.2h.2l.2-.2.2-.1h.2l.1-.1Zm-2-.9V71 70.7Zm2.3 1.3-.2.1H12v.2-.2l.2-.3a1 1 0 0 1-.4 0v.2h-.1v-.2c0 .2-.1.3-.2.3l-.1.2-.3.1H11l-.1.3v.2l.2.1.2-.1v.4h.3c.1-.2.2-.2.3-.2l.2-.2s.1-.1.2 0l.3-.4V72Zm-1.2-.1-.2.1H11h.2s.1 0 0-.1Zm-.8-.5c-.1 0-.2 0-.2.2h.2v-.2Zm1.8 1.6-.2.1-.1.2h-.2v.2l.3-.2.2-.3Zm-1.4-.8h-.3v.2h.2l.1-.2Zm7.3 8.8V81h-.3l.2.2h.1Zm-4.6-4.6h-.3c0 .1 0 .1 0 0h.3Zm4.5 4.8H17.8h.2Zm-.6.2-.2.1h.2Zm1.6-.6-.4.2c0 .3-.2.4-.3.4h-.2c0 .2-.1.3-.2.3l-.3.4h-.2l.2.1h.2l.2.2H17.8c0 .2 0 .3-.2.3l-.3.1v.3c-.2 0-.3 0-.3.2.2 0 .5 0 .8-.2.3-.2.5-.5.6-.8l.1-.1V82l.1-.2c0-.2.1-.4.3-.5l.2-.5Zm-1.5.3-.3-.1h-.6v.3c-.1 0-.1 0 0 .1l-.3.1-.1.2c-.2 0-.2.1-.3.2l-.1.3h.2l.3-.3v-.2c0-.1 0-.1.2 0h-.1v.3H16.7l-.1-.2v-.2h.2v-.2l.3-.2.2-.1h.2Zm0 1.3h-.1l-.3.1-.1.1.1.2.4-.1v-.3c.1 0 .1 0 0 0Zm-.2-.5H17.1l-.1.1v.1l-.2.2h-.2l-.2.2c0 .2-.1.3-.2.3H16l-.1.3h-.2v.1l.2.2s.1-.1.2 0l.2-.2c0-.2.2-.3.3-.4.1 0 .2-.1.2-.3l.3-.3.1-.2.2-.1Zm-1-.9H15.8c0 .2-.1.2-.2.3l-.3.2v.2l-.3.1v.1c.2 0 .3 0 .2.1l-.1.2-.2.2v.2h.1l.2-.2.1-.1h.2l-.1-.1v-.4h.1c.1-.2.2-.2.3-.2l.3-.3.3-.3Zm-.1 1.4h-.5l-.1.1H15.4v.3h.1l.1-.1h.4v-.2l.3-.1Zm-1.5-1.6h-.2c0-.1-.2 0-.2 0v.3h-.1l-.1.2H14v.2l.1.1.1.2v.1h.2v-.4l-.1-.2.4-.5Zm3.7-12.3v.1c0 .1 0 .1-.2 0l.2-.1Zm-.7-.5h-.3v.1c0-.1 0-.2.3-.1Zm.8 1.1h-.3l.2-.1.1-.1v.2Zm.2.4h-.2v-.2l.2.1v.1ZM18 69h-.4l.2-.1s.1-.1.2 0v.1Zm1.3 1.5h-.4c.2 0 .3-.1.3-.2v.2Zm-.9-.8c0 .1 0 .2-.2.2l-.2-.1h.4Zm.5.9-.3.1h-.1l.2-.1h.2Zm.4 1H19l-.1.1v-.1h.3Zm-1-.6H18h.1l.1-.1v-.1l.2.2Zm.4 1h-.4l.2-.1h.1Zm-.7-.1v.3l-.2-.1v-.2h.2Zm.9 1v.1l-.2.2H18.4l.1-.2H18.8v-.2Zm-.4.4v.2c-.1 0-.1 0 0 .2 0-.2-.1-.3-.3-.3H18.5Zm-.4.1-.1-.2c0-.1 0-.1.1 0v.2Zm.2.1-.2.2v.1l-.2.1v-.2a41 41 0 0 1 .2-.2h.2Zm.1.5h-.2v-.1h.2v.1Zm-1-.3-.2.2s-.1 0 0 0H17h.1l.1-.1v-.1h.2Zm0 .8v.1c-.1 0-.1.1 0 .2H17l-.1.1-.2.1-.1.3h-.2l-.1.1-.2-.1V75h.3v-.2h.2c.1 0 .2 0 .2-.2h.2v-.1H17.4Zm-5.6-2-.2.1h-.1v.3l-.1-.1v-.3h.4ZM20.5 108.6l-.2 1-.2.7H20v.2l-.2.4-.3.3v.3h-.2c0 .2 0 .3-.2.4l-.3.1-.2.2v.1s-.2 0-.2.2l-.3.1-.5.3a1 1 0 0 0-.5.3l-.3.1c0 .1-.2.1-.2 0-.3.2-.6.3-.9.2H15l-.3.2h-.3a9 9 0 0 0-.8 0 1 1 0 0 1-.6-.3h-.7c0-.2-.1-.3-.2-.2a2 2 0 0 1-.4-.2l-.3-.3-.3-.3a1 1 0 0 0-.3-.4c-.2 0-.4 0-.5-.2l-.3-.4-.3-1a23.1 23.1 0 0 1-.5-1.6l.1-.2v-.2H9l.2-.2.2-.3v-.2l.4-.3.2-.2.6-.1.5-.2c.2.2.3.3.5.3.1 0 .3 0 .4.2.3.1.5.3.6.5l.4.5-.1.6-.2.3-.3.3-.2.2-.3.1-.3.2h-.2l-.3.1h-.5v.1c-.1.6 0 1 .2 1.4l.5.6.4.4.7.2c.2 0 .4 0 .6.2l.2.1.3.1h1.1l.1-.2c.4 0 .6-.2.9-.4l.6-.9v-.1l.1-.2.3-.5v-.6l.2-.9-.2-.9h-.4l.1-.4.3-.3v-.3l-.3-.3v-.2c.2 0 .2 0 .2-.2a2 2 0 0 1-.1-.6c0-.2-.1-.3-.3-.4l.1-.2v-.3a4 4 0 0 0 0-.4l-.3-.1v-.3l-.2-.2-.2-.3-.2-.2h-.7a79 79 0 0 1-1.6.4h-1l-.3-.2v-.4l.9-.4H15l.2-.2.1-.1v-.1h.2c0-.2.1-.2.2-.2 0-.1 0-.2.2-.2l.1-.1-.3.1-.3-.1.2-.3a25.7 25.7 0 0 1 .6-.6l.2-.4v-.4c0-.2.1-.2.2-.3 0-.2-.1-.2-.2-.3l-.2-.2c0-.2.2-.4.3-.4 0-.4 0-.6-.2-.8v-.2h-.6c0-.2 0-.3.2-.4.1 0 .2-.1.2-.3H16V97.5h-.5l.1-.3.3-.3c0-.4-.2-.6-.6-.7h-2l-.4.2a14.4 14.4 0 0 0-1.3 1.1V97.8l-.2.1v.2c.4 0 .6.1.7.3l.5.3v.2l.2.1.2.6-.1.6c0 .2-.2.3-.3.4-.1.2-.3.2-.5.3h-.1l-.1.2h-.6l-.6-.1v-.2l-.2-.1H10.1v-.2l.1-.1v-.4l-.3-.3.1-.7c0-.2 0-.4.2-.5v-.2l.2-.1V98l.1-.2.3-.2c.2-.1.3-.2.3-.4l.4-.2.3-.4.7-.3.6-.4H13.4l.3-.1h.5l.2-.2.4.1h.4l.8.2h1.3v.2l.6.3c.2.2.5.2.7.2l.3.3.3.3c.2.1.3.3.3.4l.1.3h.3l.1.3v.6l.2.5v1l-.2 1-.4.6-.4.7a3 3 0 0 0-.6.3l-.6.3c0 .1 0 .2-.2.2h-.2l-.3.2H17l.3.2h.6l.8.4c.2 0 .3.2.5.4 0 0 0 .2.1.1h.1l.2.3.1.2.2.2v.5l.3.6V107.8l.2.1v.3a65.2 65.2 0 0 0 0 .4Zm-2.2-11.7c-.3-.1-.5 0-.7.1l-.4.5.2-.1.3-.2.3-.1.3-.2Zm-1-.2h-.2l-.1.2h.2l.2-.2Zm1.5.7-.1-.2h-.1l-.5.2-.4.3c0 .2-.1.2-.3.3 0 0-.2.1-.2.3l.5-.1c0-.2 0-.2.2-.3h.3l.1-.2h.2l.1-.3h.2Zm.6.6-.1-.2H19l-.2.1h-.2c0 .3-.2.5-.4.6l-.5.3v.1l-.2.1c-.1.1-.1.2 0 .2V99h.3l.6-.5.8-.3V98ZM17 96.5h-.5s0 .2-.2.2l-.1.2s0 .1.1 0h.2l.1-.2h.2l-.1.2.2-.2.1-.2Zm2.3 3h-.2.2Zm-3-3h-.2v.1h.1l.1-.1Zm3.6 2.9-.5.2-.3.3-.2.1-.1.2.2-.1.3-.2h.4c0 .2-.1.3-.2.3l-.3.3.3-.1h.3l.1-.3v-.7Zm-1-1.8-.2.1h-.2a2 2 0 0 1-.4.3h-.3c-.1.3-.3.4-.4.4l-.2.1a2 2 0 0 0-.5.5l.3.2h.1l.5-.5c.2 0 .4-.2.5-.4.1 0 .2 0 .2-.2l.2-.1.2-.2h.2v-.2Zm.9 1.3-.2-.3c-.2 0-.4.2-.6.4a3.4 3.4 0 0 1-.8.6l-.2.2-.3.1c0 .2.1.2.2.2l.2-.2.1-.1.3-.1.3-.3.5-.1.2-.2c.2 0 .2 0 .3-.2ZM17 97.7h-.2.2Zm-.1-.3c0-.1-.1-.1-.2 0h-.2v.1l-.2.2c.2 0 .2-.1.3-.2l.3-.1Zm2 2.2-.2.1-.2.1h.2l.2-.2Zm-1.6-1.8h-.3l-.2.1-.2.2v.2s.2 0 .3-.2l.4-.3Zm2 .5-.4.2-.3.1-.2.1-.2.2-.2.2h-.3c0 .2-.1.3-.3.3-.1 0-.3.1-.3.3l-.4.3v.2c.4-.1.7-.3 1-.6a11.5 11.5 0 0 1 1.7-1.3Zm-2.2 0H17l-.1.2h.2v-.2Zm2.6 2.3-.3.2c-.1 0-.2.1-.2.3H19v.3h.2c0-.1.2-.2.3-.1l.2-.4v-.3Zm-1 .8h-.2v.1h.1l.1-.1Zm-1.1-1.3-.4.2-.2.2.3-.1.3-.3Zm.9-.2c-.2 0-.4 0-.5.2l-.5.3a2 2 0 0 0-.4.3l-.5.4c.4 0 .7-.2 1-.5l.9-.7Zm.9 1.6H19a2 2 0 0 1-.4.2l-.1.2-.1.1h-.2l-.2.2-.2.1c-.1 0-.2.1-.1.2h-.2c0 .1 0 .1-.1 0l.3.1h.2l.2-.2h.3v-.1l.2-.1c0 .2 0 .3-.2.4l.4-.2.3-.3v-.3l.2-.2.2-.1Zm-1.4 0-.2.1v.1l.2-.2Zm0-.6a18 18 0 0 0-1.2.8c-.2 0-.3.2-.4.4l.9-.6.7-.6Zm-.5 1-.2.1h-.1l-.2.2v.1h.1l.1-.2.3-.1Zm1.6 3.1-.2-.1h-.4v.2H19.2Zm.3.4-.1-.1v-.1h-.2v.2h-.3c0 .1 0 .2-.1.1v.3l.3-.2.4-.2Zm-.1.3s-.1.1-.2 0h-.1l.2.2v-.2ZM12.3 99l-.3.1v.2l.2-.2Zm4.2 3.7-.6.5-.4.3c.1.1.3.1.4 0l.4-.1v-.5l.2-.2Zm3.3 3.6v-.2l-.1-.2-.5.4-.5.3-.2.3.7-.2.6-.4Zm-1.2-.4h-.2.2Zm-1.5-1.6-.1.1-.2.2h.3v-.3Zm0 0h-.4l-.2.2h.2c.2 0 .3-.1.3-.3Zm-4.5-4.4v-.5a1 1 0 0 0-.4.1c-.2 0-.2.2-.2.3l.2-.1h.3a1816059959852.5 1816059959852.5 0 0 1-.5.4h-.2v.3h-.2.5l.5-.5Zm-1.3-1.4h-.2c0 .1 0 .2-.2.1-.1 0-.2-.1-.2 0-.2 0-.3.2-.3.3v.2l.2-.2.2-.2h.4l.1-.2Zm.5 1h-.2l-.2.2.2-.1.2-.2Zm6.8 5.4-.1-.2v-.1c-.2-.2-.6-.3-1-.3l-.6.4.2.1v.1l-.1.2-.2.1-.1.2.1.2.1.1v.5h.5l.1-.2v-.1l.3-.1v-.1.3h-.2l-.2.2v.1l-.2.1-.1.2-.2.1h.2v.1h.4l-.2-.1c-.1 0-.1 0 0-.1l.2-.2.1-.2h.2v-.2h.4l.1-.3v-.2l-.2.1.1-.1c0-.1.1-.1.2 0v-.2l.1-.1-.3.2h-.1l-.3.1v.2h-.3a10 10 0 0 0 .8-.6c0-.2.2-.2.3-.2ZM12 98.7l-.2-.1h-.1l-.5.5-.6.5.2-.2c0-.2.1-.3.2-.3l.3-.3-.7.4-.3.4v.5h.2l.1-.2.1-.1s.1-.1.2 0v-.2l.2-.1c0-.2.2-.4.4-.5l.5-.3Zm6.1 7.8-.1-.1-.1-.1v.2h.2Zm-6.5-6.6h-.2v.1h.2Zm7.6 6c-.1 0-.3 0-.4.2h-.3l-.3.4-.3.2-.2.1v.1h-.4c0 .2 0 .3-.2.4l-.1.4c.2 0 .5-.2.6-.4l.6-.4 1-1Zm.6 2.5h-.1c-.1 0-.2 0-.2.2h.2l.1-.2Zm-2-1.9h-.2l-.2.2h.3v-.2Zm-6.4-6-.2.1h.2v-.2Zm-.2-.3-.3.1c-.1 0-.2.1-.1.2l.2-.1c0-.1 0-.2.2-.2Zm6.9 7-.3.2v.2-.1c.1 0 .1-.1 0-.2h.3Zm2 1.8v-.2l-.1-.2-.2.2c-.2 0-.3.2-.4.3-.1.2-.2.3-.4.3h.4l.3-.3H20Zm-.1-2.3-.3.1-.1.2-.3.2.2-.3.2-.2-.7.1-.4.4h-.2a1.8 1.8 0 0 0-.4.4l-.2.2-.6.4v.5h.2v-.2l.3-.1c.2 0 .3-.2.4-.3l.4-.4.2.2.2-.1.2-.2h.4l.2-.1h.1c0 .1-.1.2-.3.2l-.2.1-.4.1a4 4 0 0 1-.4.4 7 7 0 0 0-.4.3v-.3h.2v-.1l.2-.2-.4.2-.3.2.2.3-.3.2s-.2 0-.3.2l-.1.3v.4l.2-.2.2-.1-.2.2v.1h.2v.1h-.2v.3l-.3.3v.3l.1-.1v-.1l.2-.1.7-.7.6-.6h-.3l-.2.2H18v.2-.4l.6-.1v-.2h.1l.2-.1h.1l.4-.5.4-.1c.2-.2.2-.5.2-.7l-.1-.8Zm-.2 3-.2.1-.1.2-.3.2h.2l.2-.2h.1l.1-.3Zm-.2.6a1.7 1.7 0 0 0-.3 0l-.4.4h-.3c0 .2-.1.3-.3.4-.1 0-.2.1-.2.3l.3-.1h.3l-.4.2-.3.3-.3.3-.4.3-.2.3a8.3 8.3 0 0 0 1-.6l.8-.6c.2-.2.4-.4.5-.8l-.3.2-.1.1-.3.2-.2-.1.4-.1v-.2l.3-.1.1-.2.1-.2h.2Zm-1.4 1.1h-.4v.3-.2h.4Zm1-1.6H19l-.1.2-.2.1-.2.1-.2.3a1.8 1.8 0 0 0-.4.3l-.2.1v.2H17l-.3.4-.1.5a4.7 4.7 0 0 0-.6.8h.3v-.3h.3c0-.2.2-.2.3-.3h-.1l-.1-.2v-.1l.3-.1v-.2l.2-.1.3-.3h.2l.4-.5c.1-.2.3-.2.4-.3a4.2 4.2 0 0 1 .5-.6Zm-7.4-2h-.3.2s.1 0 0 0Zm4.3 5-.2.3h.2v-.3Zm-3.7-4.8h-.2l-.2-.1-.2.4-.3.2-.2-.2-.2.1H11l.1.2h.1l.2-.2.2.2-.1.1h-.2v.2H11v.2h-.3l.4.2.2-.2.1-.3h.5v-.1l-.3-.1.3-.1.2-.1v-.1l.2-.1v-.2Zm.4.8v-.2l-.1-.2c-.3 0-.5.2-.6.5l-.3.1h-.1l-.2.3h-.2v.2h.2l-.3.1c.1.1.3.2.4.1h.4l.5-.5.3-.4Zm-1-.7-.4-.2c-.1 0-.2 0-.2.2H11c0 .1 0 .1-.1 0h.2v-.2h-.4l.2-.2s.2 0 .2-.2h-.3l-.2.2-.3.2-.2.1.2.2s0 .1 0 0v.1l-.2-.1-.2.1h.3v.1h-.4l-.1.5-.1.4h.5l-.2-.1v-.2l.2-.1v-.2l.4-.2.1.1-.1.2-.2.4-.4.2-.1.1-.1.2v.1l.1.2.1-.2.3-.2s.1-.1 0-.1v-.1l.3-.3h.3V108.8h-.2l.1-.2.2-.1a1 1 0 0 0-.3 0v-.2h.3l.5-.2h.3Zm-1.1 1.3h-.2v.1h.2Zm-.4 1.7a13.5 13.5 0 0 1 0-1c-.2 0-.2.1-.3.2V110.9c.2 0 .2.1.3.2Zm7.5-6.6v.2h-.1v-.2h.1Zm-.1.3c0 .1-.1.2-.2.1l-.2.2v-.1l.1-.2-.1-.1v-.2h.3a13.1 13.1 0 0 0-.2.2l.3.1Zm-.4.8h-.4.4Zm1.9 1.7c-.2 0-.3.1-.3.3h-.1v.2l-.2-.3c.2 0 .2 0 .3-.2h.3Zm-1.8-1.5-.1.2v.1c-.2-.1-.2-.2 0-.2h.1Zm2 2-.2.3c-.2 0-.2.1-.2.2l-.2.1h-.2l.3-.2.3-.4h.2Zm-7 1.1v.1l-.2.1v-.1h.2Zm-.4.5a4.8 4.8 0 0 0-.4.1c.2 0 .2-.1.2-.2h.2ZM20.4 138.5H20l-.6.1c-.2 0-.3-.1-.4 0h-.4a.9.9 0 0 0-.4-.1h-.4v2.2l-.1.3h-.1v.2c-.1 0 0 .1 0 .1v.8c0 .2.2.4.4.5l.6.2.8.1h.8s.1 0 0 .2l.1.2v.1l-.2.1a7 7 0 0 0-.5 0l-.6.1a.7.7 0 0 0-.5-.1h-.6a8.7 8.7 0 0 1-1.4-.1l-.2.1H16c0 .1 0 0-.1 0l-.9-.1-.8-.2h-.3l-.2.2h-1c-.3 0-.5 0-.7.2h-.5l-.1-.2-.1-.2.9-.2.7-.2h.7l.3-.2.3-.2v-.5l.2-.3c-.2 0-.3 0-.4.3l-.1-.1H13.6a17.9 17.9 0 0 1 .5-.5h.1l.2-.5.1-.3v-.9h-.2l-.2.2-.1-.3c0-.1 0-.2.2-.2v-.3h.1a40.3 40.3 0 0 1-2.4-.3h-1.6a21.3 21.3 0 0 0-.7 0l-.2-.2.2-.4.1-.4.2-.3.2-.2.2-.5a12.1 12.1 0 0 1 .7-1.3l.4-.6A22.7 22.7 0 0 1 13 132l.5-.5v-.3l.2-.2.5-.6.5-.7.4-.5a1099.6 1099.6 0 0 0 1.5-2l.2-.4v-.3a8.3 8.3 0 0 1 .2-.6l.2-.2.2.4.1.4c.2-.1.4-.1.4 0l.1.3c-.1 0-.2 0-.2.2v.2l-.2.3v.8l.1.7v2.2l.3.3v.1l-.1.3-.3.2v.5a4.4 4.4 0 0 0 0 1l.2.4-.2.4v.2c.1.1.1.2 0 .2v.6l.2.2v.2l-.2.2.1.2h.2v.4l-.2.2c0 .2 0 .4.2.6h.6a37.5 37.5 0 0 1 1.1 0h.6l.2.4v.6ZM17.3 127l-.3.3v.2l.2-.2v-.3Zm.1 1.4h-.3l-.1.3-.4.2c0 .2-.2.3-.4.3 0 .1 0 .2-.2.2a365.4 365.4 0 0 0-.8 1c.2 0 .3 0 .3-.2 0 0 .1-.2.3-.2 0-.2.2-.3.3-.3l.2-.2.2-.2.3-.1.4-.3c.2-.2.3-.3.2-.5Zm.1 1V129.2l-.2.1H17l-.7.7c-.3.1-.5.4-.7.6H15.4v.3c-.2 0-.2 0-.2.2H15c0 .2 0 .2-.2.3-.1 0-.2.1-.2.3h.2v.3l.2-.2.2-.2h.8l.2-.3h.2l.2-.3c.1 0 .2 0 .1.1v.2h-.3v.2H16v.3h.4l.3-.3h.3l.2-.2.1.1v.3l.1-1.1v-1h.1Zm-.3 2.2-.3.2h-.2l.2.1h.2v-.3Zm0 .5H16.9l-.2.1-.2.1h.2l.3-.1h.2Zm.1.9v-.4l-.3.2h-.2.4l.1.2Zm-2.1-2.2-.4.1c0 .1 0 .1.1 0h.2v-.1Zm.7 1.5-.3-.1.3.1Zm.1-.5h-.2c0-.1 0-.1-.2 0v-.1l-.1-.1c-.1 0-.2 0-.2.2l.2.1-.2.2c-.1-.1-.2-.2-.3-.1l-.2-.1c-.1 0-.2 0-.2.2v.2h.2c0-.2.1-.2.2-.2h.2-.2v.2h.2l.3-.1v-.1l.2-.1h.2l.1-.2Zm-.8.2c.2 0 .2-.2 0-.3H15l.2.2Zm1.5 1.5v-.2c-.1 0-.1 0 0-.1-.2.1-.2.2-.1.2h.1Zm-.5 0-.2-.2.2.2Zm.6-1h-.2l-.3-.2v.2h.3-.8l-.2.1.1.3h-.1c0 .1 0 .2.1.1h.2l-.2.2H15.4c0 .2-.2.3-.3.4l-.4.3v.3l.1.1v-.2h.4l.1-.1v-.2h.1v-.1l.5-.3.2-.3.2-.1.2-.2.2-.2h.1Zm-1.5 0c0-.2 0-.2-.3-.2h-.3v.4c.2 0 .3-.1.3-.2h.2Zm.3.6-.1-.2v-.2l-.3.3h.4Zm1.5 1.5-.2.1.2-.1Zm-2-1.5c-.1 0-.2-.1-.2 0l-.2.1v.2H15v-.1l.1-.2Zm5 5a3.4 3.4 0 0 0-.4-.2H18.8l-.2.2H20Zm-2.8-4.8H17c0 .2-.1.3-.2.3l-.2.2-.2-.2h-.2l-.3.3h-.3l-.1.3c0 .1-.1.1-.2 0l-.1.3c-.2 0-.2.1-.2.3h-.2l-.1.2v.3c.3 0 .5 0 .7.2H15l-.2.1h-.1l-.1.2v.4h.2l.3-.2v-.3l.4-.1.3-.2.1-.3h.2v-.2H16.5l.2-.2.2-.2h.2v-.4c-.1 0-.2-.1-.1-.2l-.1.2h-.1c-.1-.1-.1-.2 0-.2l.2-.2.2-.1.1-.3Zm.1 3.8-.1-.3-.2.2v.1l-.1-.2c0-.1 0-.1.2 0 0-.3.1-.4 0-.4v-.2l-.2-.1h-.3l.1-.1h.2c0-.3.2-.4.2-.4v-.3l-.2.1.1-.4c.2-.1.2-.3 0-.4l-.2.2-.4.2c0 .2-.1.2-.2.2a1 1 0 0 1-.2 0v.1l-.1.2h-.1l-.1.2h-.2c-.1.2-.2.2-.3.2l-.1.1-.2.4c-.1.2-.2.2-.3.2v.9h.1l.2.2-.1-.2-.1-.2c.2 0 .3.1.3.2v-.2h.1v.2h.1l.1-.1h.2l.1-.1h.4-.3c0 .2 0 .3-.2.3l-.4.1c0 .1.1.2 0 .2H15v.2c0 .2-.1.2-.2.2l.2.2h.3v-.3l.3-.1v-.2h.3l.1-.1.2-.1.3-.3.2-.2.1-.1H17.1h-.2c-.1.1-.1.2 0 .2l.2-.1h.2l.1-.2Zm0 1.5c0-.2 0-.2-.2-.2H17v.2h.4Zm0-.4-.1-.2-.2-.1-.2.2h-.2v.2h-.2v.2l-.2.2H16l-.1-.1v.1l.2.1h-.3l-.2.1.2.1h.1v.2l.1-.1h.2l.3-.2v-.2H16.9v-.3h.2l.2-.2Zm-3-3v-1.6h-.3v-.3h.2v-.4l.1-.4-.1-.4h-.4l.2-.1v-.2H14l-.4.4c-.2.2-.3.3-.3.5l-.2.1v.2l-.2.2-.1.1-.5.8-.4.7c0 .3-.2.5-.4.7a1 1 0 0 0-.2.5 5 5 0 0 0-1 1.8h1.5l.3-.1.4.1h1.4c.2 0 .3 0 .4-.2v-.3c.1-.1.1-.2 0-.4 0 .1 0 .1-.1 0H14l.2-.3v-.2l.2-.1V135Zm2.7 2.3h-.2v.1h-.3v.2h-.3v.3H16l-.2.2-.2.1h-.1l-.1.2c-.2 0-.3.1-.3.2l-.2.3-.1.3.2-.2h.2l.1-.2h.2v-.3h.3a1.4 1.4 0 0 1 .6-.6l.2-.1v-.2h.2l.1-.2.1-.1Zm-.5 1.9v-.1l-.2-.1.2.2Zm-.2-.2-.3.2h-.2.1l.2.1v-.1c.1 0 .2 0 .2-.2Zm-.5.3-.1-.2H15.5v.2l.1.1.1-.1h.2Zm1.2 1.3h-.2v.1c0 .1 0 .1.2 0v-.1Zm.3-1.4V138.8a1 1 0 0 1-.3.2l-.3.1-.2.2c.1 0 .2 0 .2.2h-.1v.3h-.4v-.2l-.1.2H16l.3.3c0 .2-.1.3-.2.3 0-.1-.1-.1-.2 0 .2 0 .2.1.2.2H16s0-.2-.2-.2v.3l-.2-.1v-.2h-.1a2 2 0 0 1-.3.4l-.2.1h.5l-.3.1-.1.2-.3.1v.1h.3l.2-.2.3-.1.1-.2.3-.1.3-.1c0-.3.1-.4.2-.4h.2-.3v-.2h.4c.3 0 .4 0 .5-.2.1-.1.2-.3.1-.5Zm-1.2.8s-.1-.1-.2 0H16h.2Zm-.7-.6-.3.1-.1.1h.2l.2-.2Zm.4 0-.4.3-.3.2-.1.3H15h.2c.1-.2.2-.2.3-.2v-.2h.2l.2-.2v-.1Zm1 1.7v-.2h-.5c0 .1-.1.2-.3.2v.2l.1.1.2-.3h.5Zm.7 1.4c-.2 0-.3-.2-.3-.3v-.7H17c0 .1-.1 0-.1 0v-.2.3h-.2c0-.1 0-.1 0 0h.1-.4v.5h.5l.2-.1a1 1 0 0 0-.3.2c0 .1 0 .1-.1 0v.4h.8Zm-3.9-4.4a2 2 0 0 0-.7 0 3 3 0 0 1-.5 0l-.3-.1h-.3l1 .2h.8Zm2.5 3.3H16c0-.1 0-.1-.1 0l.2.2v-.2Zm-.4-.1-.2-.2h-.2l.2.2h.2Zm.4.7H15.9h.3Zm.2.6V142.4l-.1.1H16l.1.2h.2Zm-.2-.3-.2-.1H16h.3Zm-.6-.2-.2-.3.3-.2-.2.1-.1.1h-.2l-.1.2.3.1h.2Zm-3.9-4.1h-.9l.5.1.4-.1Zm4.1 4.4H15.2v-.3l-.2.1h-.2v.3c-.2 0-.2 0-.3.2h.9c0-.1 0-.2.2-.2h.2Zm1.3-12.4H16.8l.1-.1h.2Zm-.2.2h-.5c.1-.1.2-.2.3-.1h.2Zm.3.2-.2.1c-.1 0-.2 0-.2.2v-.2c.2-.1.3-.1.4 0Zm-.5 0h-.2l-.1.2a5 5 0 0 0-.4.3l.1-.3v-.1h.2v-.1h.4Zm-1 .5v.3h-.2l.1-.1.2-.2Zm.6 1.6-.1.1H16h.1l.1-.2v.1Zm-.1 1.5-.1.1-.1.1v-.2h.2Zm.3-.4-.2.2v.1H16l-.1.1v.2h-.2v.2-.4l.4-.2.3-.2Zm.4 2c-.2 0-.4 0-.4.2 0-.2.1-.3.2-.3l.2.2Zm-1.4-.9h-.3v-.2h.2v.2Zm1.2 1.3H16.4 16.7Zm-1.5-1.1-.2.2H15v-.1l.2-.2h.1Zm1.3 1.3c0 .1 0 .2-.2.3v-.2h.2Zm.4.2-.2.1-.1.1-.1.3c0-.1-.1-.1-.2 0s-.2.1-.2 0H16l-.1.2h-.2v-.2l.2-.2.1.1.2.1V136.8h.2l.2-.1.1-.1h.2Zm-1 0h-.2.1Zm-.4.3-.1.2h-.2c0-.1.1-.2.3-.2Zm1.8 2.7H17 17.3Zm-.3.3h-.2l-.1.1h-.1l-.1-.1h.5Zm0 2.1c0 .2-.2.2-.4.2v-.2h.5ZM20.5 166.6v1.1a8.8 8.8 0 0 0-.3 1.8l-.1.5-.2.6-.2.5c0 .2-.2.3-.4.3l-.3.4-.2.2s0 .2-.2.2l-.2.2-.2.2-.2.3h-.4l-.6.3-.8.3h-.8a8.9 8.9 0 0 1-1 0 17.3 17.3 0 0 1-.9 0H13l-.3-.1-.6-.1-.5-.2-.3-.2h-.2c0-.2-.2-.3-.3-.3l-.1-.2a.8.8 0 0 1-.5-.3l-.3-.5a5 5 0 0 0-.2-.4l-.4-.4.1-.3.2-.1-.2-.5v-.3l.2-.5c0-.2.1-.3.3-.4 0-.2 0-.4.2-.6 0-.2.2-.3.4-.3l.2-.1.1-.1h.4c.1-.1.3 0 .4 0l.3.3c.1 0 .2 0 .2.2h.2l.2.1.3.4c.2 0 .2.2.2.4v.2l.1.2v.5l-.1.3-.4.4-.2.1-.2.2-.2.1h-.2l-.2.1h-.8v.2c0 .2 0 .3.2.3l.6.8.9.3a2.5 2.5 0 0 0 2.6-.3l.4-.7.1-.3.2-.2a14 14 0 0 0 .7-2.9h-.1l-.1-.1v-.2l.2-.2.1-.2v-.3h-.3v-.3l.2-.1.2-.2v-1.1s0-.2-.2-.3l.1-.2V164.2l-.2-.1-.1-.2v-.4c-.2-.1-.2-.2-.3-.4a2 2 0 0 0-.8-.3l-.6-.3s0 .1-.1 0l-.2.1h-.4l-.6.2c-.2.1-.3.1-.4 0l-.2.2a16.4 16.4 0 0 1-.3.2v.2l-.4.2c-.2 0-.3.1-.3.3l-.2.1-.2.2-.3.7-.3.9c-.2 0-.3-.1-.3-.2v-.2l-.2-.3a9.7 9.7 0 0 0 .2-2l.3-1.2c-.1-.2-.2-.3-.1-.4v-.4a42.9 42.9 0 0 1 .6-3.7v-.4l.1-.3c.1-.1.2-.3.1-.6l.1-.6h.3l.6.4.7.4H15.2l.6.1h.4l.4-.1.3-.1h.5l.2.1c.4 0 .7-.2 1-.3l.6-.5.2-.3.1-.2h.4l-.2.7-.3.6V156.6l-.1.1v.2a14.3 14.3 0 0 0-1.2 1.6h-.2a29 29 0 0 1-1 .7h-2.1a1 1 0 0 1-.5-.3h-.9l-.1.2H13v-.3h.1c-.1-.2-.3-.2-.5-.2l-.4-.2-.1-.5v-.2c-.2.1-.1.2 0 .3l-.3.4-.1.2v.2l-.2.1-.1.7-.1.6v.4l-.2.4a67 67 0 0 0 0 2.6l.2-.4.4-.3 1-.7 1-.1.6-.1a3.2 3.2 0 0 1 1 0l.5.1.7.1.7.4h.5c0 .2 0 .3.1.2h.2l.2.2.1.1c.2 0 .3.1.4.3l.2.1v.3h.2l.1.2v.2c.2.4.3.7.6.7l.5 1.5.1.2Zm-2.4-9.6s-.1-.1-.2 0h-.1.3Zm-.2.3h-.4.4Zm.3.2h-.4l-.1.1h.2c0 .1 0 .1 0 0l-.2.1-.1.2h-.2V157.6h-.2l-.3.1v.2h-.3l-.3.3-.3.1-.1.2h-.2l.6.1.5-.1.2-.4h.1l.3.1c.4-.1.7-.4.8-.7Zm-.8-.4c0-.1-.2-.2-.3-.1a1 1 0 0 0-.3 0h-.4l-.4-.1h-.5v.1h-.2l-.1-.2-.2.2h-.2a7 7 0 0 1-.3 0H14v.2h.2l-.6.2h-.3v-.1l.3-.1c.2 0 .3-.1.3-.2a10.6 10.6 0 0 1-1 .1l-.1.2h-.1a2 2 0 0 1-.6.4l.2.1.2-.1.2.2.1-.1h.3l.2-.1-.2.2v.1h.2l.3.2h.4c0 .2 0 .2.1.1l.3.2.2.1h.2l.2-.2h.2l.1-.2h.2l.1-.1.3-.3c.1 0 .2 0 .3-.2l.2.2.2-.1h.1l.2-.2h.2v-.2a13.6 13.6 0 0 1 .3-.2Zm-5.4-.8v-.1h-.2l.1.1h.1Zm5.6 6.8h-.2l-.1.2h.1l.2-.2Zm1 1.1v-.2l-.2-.3-.3-.2-.2-.2c0 .2-.1.3-.2.3l-.3.3c-.1 0-.2 0-.2.2l1-.4v.4l-.4.2v.1h-.2v.2h-.1l-.1.2h.3a14.5 14.5 0 0 0 .8-.6Zm-1.4-1.2-.4.1-.2.2c0 .1.2.2.2 0l.2-.1.2-.2Zm-.6-.3h-.2c0-.1-.1 0-.1 0l.2.2.1-.2Zm-5-4.8c-.1 0-.1-.1 0-.2h-.2v.2h.1ZM19 165l-.1-.2-.2-.2-.2.1-.3.1v.2l-.2.1-.2.1v.1l.5-.2.5-.2.2.1Zm-1.7-1.5-.4.3c-.2 0-.3.1-.3.3.2 0 .3 0 .3-.2l.2-.2h.2v-.2Zm-6-5.2v-.2l-.1.1v.3l.1-.2Zm6.3 5.8-.4.2c-.1 0-.2 0-.3.2h.3l.3-.2.1-.2Zm.9.3-.3.1-.3.2a77.3 77.3 0 0 0 .5-.3Zm1.3 2.4h-.2l-.4.2h.3s.2 0 .3-.2Zm-8.5-8.2-.2.1v.6-.4l.2-.3Zm8.2 7.6v-.2l-.1-.1-.3.1-.2.2h-.2l-.1.3h-.2l-.2.3h-.4c.3 0 .5 0 .8-.2l1-.4Zm-.9-1a2 2 0 0 0-.5.2l-.4.3h-.2l-.2.2-.2.1-.2.1v.2c.1 0 .1 0 0 .1a42 42 0 0 1 1.7-1.2Zm1.1 2.7s-.1-.1-.1 0l-.1-.1v.1h.2Zm-.6-2.6-.3-.1v.2c-.2 0-.2 0-.2.2h-.1l-.1.1h-.3v.2l-.6.4-.5.3h.4c0 .2-.2.3-.4.3l-.2.4h.4l.2-.3.2-.1.5-.3c.2-.1.3-.2.3-.4H18.8l.1-.1.1-.2h-.2l-.2.1v-.2c.1 0 .2 0 .3-.2l.3-.1v-.2Zm.7 2.8h-.5l.2.2.3-.2Zm-1-.6h-.3c0 .1 0 .1.1 0h.2Zm.9 1c-.1.1-.2.2-.3.1l-.2.2h-.1.4v-.1l.1-.1v-.1Zm-.1-2.1c-.1 0-.3 0-.4.2l-.5.1-1 .8c-.4.2-.7.4-1 .8v.6c0-.2.1-.3.3-.4l.5-.4.2-.2.2-.2.2-.1h.2a4.4 4.4 0 0 1 1.2-1v-.2Zm-.3 2h-.2l-.1.2h-.2l-.1.2c-.2 0-.3 0-.3.2H18.8l.4-.4.2-.2Zm-.4.5-.1.3h.1v-.3Zm1-1.6a7.5 7.5 0 0 0-2.5 1.5h-.2l-.2.2H16.8c0 .1 0 .3-.2.4v.6l.5-.5.6-.4c0-.2 0-.2.2-.3h.3a289.7 289.7 0 0 1 1.8-1.5Zm-1.1 2.8h-.2l-.3.1h.5Zm-.7-.5H18v.2-.1h.2Zm.5-.3-.4.1h-.1c0-.1 0-.2.2-.2l.1-.1h-.4l-.7.6c-.1.2-.4.4-.7.4l-.3.5.3-.1h.3c0-.2.2-.3.3-.4l.4-.3v-.1l.2-.2H18.5l.2-.2Zm.9-.2h-.2l-.2.1h-.3c0 .2-.2.3-.3.4l-.2.2h-.2l-.2.3-.3.1-.4.4H17l-.4.5s-.2 0-.2.2a3.6 3.6 0 0 0-.4.5h.5l.1-.2.2-.3.1.3-.2.1c0 .1 0 .1 0 0-.2.3-.3.5-.5.5 0 0 0 .2-.2.2v.5h.4c0-.2.2-.2.3-.3v-.3c0-.1.1-.2.3-.2l.3-.3.4-.3.1-.2.3-.2h.2l.3-.4a1.4 1.4 0 0 0 .5-.4H19c-.2.2-.4.2-.6.2v.2H18l-.1.2h-.2a2 2 0 0 0-.2.2l-.1.1v.1h-.2c0 .2-.2.2-.2.3 0 .1 0 .1 0 0v-.2c0-.2 0-.3.2-.3.1 0 .2 0 .3-.2h.1c.2 0 .3-.1.3-.2l.6-.7.5-.3c.1 0 .1.1 0 .2l.3.1.1-.2.1-.2h-.4l.2-.2.1-.1.2-.2Zm-.4 1.6-.3.1-.3.3-.3.2H18V171.7l-.2.3c0 .1 0 .2-.3.1l-.1.4.8-.6.8-.6.1-.3.2-.2Zm-6.5-1.6v-.1h-.1l.1.1Zm-.6-.4-.3-.1h-.2l-.1.2h-.2v.1H11v.3h-.3c.1 0 .2 0 .2.2h.2l.1-.2h.1l.4-.4h.3Zm.3 0h-.2l-.1.2v.1l-.3.1-.2.2-.2.2H11l-.2.3-.2.2h.1l.2-.1h.2l.2-.3h.3v-.2h.3s0-.1.1 0l.1-.1.1-.4.1-.1Zm.2 1.3h-.1l-.2.1-.5.1c0 .2-.1.2-.3.2a.6.6 0 0 1-.3-.3c0 .2-.2.3-.3.2v.2c.3.2.7.2 1 0 .3 0 .5-.3.6-.5h.1Zm-1.8-.6a1 1 0 0 1-.4.2c-.1 0-.2 0-.3.2H10l-.1.2h.3l.3-.2c.2-.1.3-.3.3-.4Zm-.4 1.5v.3V170.9Zm-.3-.4h-.2v.4h.1v-.2c.2-.1.1-.2 0-.2Zm.4 1.1v-.2l-.1-.2v.4Zm6.6-14.5-.3.2h.2l.1-.2Zm-1.3.5c-.2 0-.3 0-.4.2v-.1l.2-.1V157.3v.3h.2Zm-.5 0H15h.3Zm-.9-.3a3 3 0 0 1-.2-.2h.2v.2Zm.3.7v.1a128.4 128.4 0 0 0 0-.1Zm-1-.5-.1.3v.1l-.1-.3v-.1h.2Zm4.9 8.4-.2.2h-.2c0 .2-.1.2-.2.3h-.2c-.1.2-.2.2-.3.2.1-.2.2-.3.4-.3l.4-.3h.1c0-.1.1-.1.2 0ZM20.8 198.6l-.2.3-.1.1v.4c0 .2 0 .3-.2.3v.5c0 .1-.1.2 0 .2v.1l-.6 1-.8.7-.3.3c-.2 0-.3.1-.4.3h-.1s-.1.1-.2 0l-.1.3h-.2l-.8.4a2 2 0 0 0-.7.3H16l-.2.1h-1.9c-.2 0-.4 0-.5-.2H13v-.2h-.3l-.2-.2-.8-.9-.6-1a.5.5 0 0 1-.3-.3v-.4a6 6 0 0 1-.3-.8c0-.3-.2-.5-.3-.8l-.2-.7c0-.3 0-.5-.2-.6h-.2V197.4h.1v-.6h-.2l-.2.2a26.5 26.5 0 0 0 0-.4c0-.1 0-.2.2-.3l.2-.2-.1-.5v-1.2h-.3c0-.2.2-.2.2-.2v-.4c.2-.1.2-.3.2-.5l-.2-.1v-.2l.2-.2v-.3c-.1 0-.2 0-.3.2h-.2l.2-.2c-.1 0-.1-.2 0-.2l.1-.2H9.3v-.2l.2-.1c.3-.3.5-.5.6-.8l.4-1c0-.2-.1-.3 0-.4 0-.2 0-.3.2-.3l.1-.3h.1c0-.3.1-.4.3-.5l.2-.5.2-.3.3-.1.2-.4c.2 0 .2-.2.3-.3.2 0 .3-.2.4-.3l.4-.2.2-.3.4-.2.7-.5a26.9 26.9 0 0 0 2-.3l.9.1c.4.1.7.3 1 .6l.7.6a190.5 190.5 0 0 0 .7 1v1.5l-.1.2-.2.3h-.2v.2l-.6.2-.3.1H18c-.4 0-.7 0-1-.2l-.8-.6V188.9l.3-.7c0-.3 0-.5.3-.7a6.9 6.9 0 0 1 1.4-.7 2.4 2.4 0 0 0-.4-.8 1 1 0 0 0-.3-.2l-.5-.1h-.8a2 2 0 0 0-.7.3l-.3.3h-.1l-.1.1H15l-.6.6-.4.7-.2.4-.2.2c0 .3 0 .5-.2.6v1.5l-.2.3.1.2v2l.7-.4.8-.2a3 3 0 0 1 1.2-.4h1.1a5.2 5.2 0 0 0 .6 0l.8.2v.2h.1c.1 0 .2 0 .2.2l.6.4a6.2 6.2 0 0 1 .8 1.2l.2.8c.2.3.2.6.2.9v1.6h.2v.4l-.2.1v.4l.2.1v.2Zm-11.2-5.2h-.2.2c0-.1 0 0 0 0Zm0 0-.1.1h.2Zm9.5-6.2c-.2 0-.4.2-.5.3l-.3.3.3-.1s.2 0 .2-.2h.2v-.3Zm.4.9v-.4l-.6.3a3 3 0 0 1-.5.3l-.3.3-.4.2c0 .2-.1.3-.3.4v.2c.2 0 .3-.2.3-.2h.1l.2-.1h.1s0-.2.2-.2c0-.1.2-.2.3-.1l-.2.2-.2.1H18l-.2.2v.1h-.1l-.1.2h.2l.1.1h.3l.1-.3.2-.2.2-.2v-.2l.2-.3h.4l.1-.4h.1Zm-1.3-.8a1.6 1.6 0 0 0-1.3 1.2H17.2l.3-.5c.1-.2.3-.3.5-.3v-.2l.2-.2Zm-1 1.6-.2.1-.2.2h.4v-.3Zm-2.6-2.7h-.3c0 .1 0 .2-.2.2 0 0 0 .2-.2.2s-.3.1-.3.2V187.1a14 14 0 0 0 1-1Zm-1.3 1H13l-.1.1h.2v-.2Zm0 .5v.2c0 .1 0 .1 0 0v-.2Zm5.8 5.3c-.2 0-.3 0-.3-.2h-.2v.1l-.1.1h-.2c0 .1-.1.2-.2.1l-.2.2-.1.3.2-.1h.2s.2-.1.2 0v-.2h.2c.1-.1.2-.1.2 0h.1l.1-.1s.1-.1 0-.2Zm.5.7-.3-.2H19l-.2.2v.2l-.1.2c0-.1-.1-.1-.2 0h-.1v.2h.1l.2-.1.1-.2c.3 0 .5-.1.7-.3Zm-1.2-1H18l-.2-.1-.4.2c0 .1 0 .2-.2.2 0 .2.1.3.2.3h.2v-.2l.2-.1h.4v-.2s.1-.1 0-.2Zm.5 1.5v.1c-.1 0-.2 0-.1.1h.2v-.2Zm-1.5-1.8h-.5l-.2.2.2.1h.2l.2-.1.1-.2Zm1.4 1h-.3c0 .1-.1.1-.2 0l-.3.4-.3.1.2.4.1-.1h.2l.1-.2s.1-.1.2 0h.1l-.1-.2h-.1.1l.1-.2.1-.1.1-.1Zm-5.8-5.8h-.3v-.1l.2-.1v-.2c-.1 0-.2 0-.3.2l-.2.3-.3.3c-.2 0-.2.2-.2.3v.2h-.2l-.1.2s0 .1-.2 0v.4l-.2.1c.2 0 .2 0 .3-.2l.2-.1c0-.2.2-.3.3-.4l.3-.2.2-.2h.1l.1-.2.1-.1v-.1l.2-.1Zm7 7v-.1l-.1-.3h-.3c0 .2 0 .2-.2.3h-.2v.2h-.4l-.2.1v.3l.1-.2h.1l.4-.1.3-.1v.2h.1l-.2.1h-.1l-.2.2h-.5.2l.2.1-.4.3-.4.2-.1.1v.4h.1l.2-.3h.1c0 .1.1.1.1 0v-.1h.6l-.2-.3c.1-.1.2-.1.2 0h.1l.2-.3.2-.1.1-.2v-.2l-.2-.2H19.9Zm-7.5-6.1Zm7.7 8.1v-.7l-.1-.7v-.2H20v.2H19.8v.3l-.1.1h-.2v.3l.2-.1.2-.1h.2l.1.2-.1.1v.1h-.5l-.1.1.2.2h-.3l-.1.2-.2.1-.1.2v.2l.5-.1.3-.2.2-.2h.3Zm-7-8.2-.3.2-.4.1-.1.2h-.2l-.2.2-.2.2-.2.1c0 .2-.1.3-.2.3l-.4.6-.4.5.2-.1.2-.2v.3h-.2l-.2.5c.2 0 .3-.2.4-.3 0-.2.2-.3.4-.3l.1-.2h.3v-.4h-.2v.1l-.2.2c-.2 0-.3.1-.4 0h.2l.2-.2c0-.1 0-.2.2-.2l.2-.1h.1c0-.2 0-.3.2-.3l.3-.2v.2h-.2c0 .2-.1.2-.2.3v.2l.2-.1h.2l.3-.4.3-.2-.2-.1h-.2l-.2.1.2-.2.2-.3.2.2c.1 0 .1-.2 0-.4.1 0 .2-.1.2-.3Zm7 8.8h-.1c0 .1-.1.1-.2 0 0 .2-.1.3-.2.3l-.4.2-.1.1-.1.1v.2-.1h.1l.1-.1h.4v-.3c.4-.1.5-.2.6-.4Zm-.8-.8c-.2-.2-.4-.2-.5 0l-.4.1-.2.3-.2.1v.4H18h.3c0-.1 0-.2.3-.2v-.1c.1 0 .2 0 .2-.2l.1-.2.2-.1c0-.2.1-.2.2-.2Zm.8 1.9h-.6v-.2h-.1l-.1.2h-.1v.2h.4c0-.1 0-.1 0 0h-.1l.1.1h.3v-.2l.2-.1Zm-.8-.9-.1-.1h-.1l-.3.3h-.2l-.1.2-.3.1h-.2v.6a4.7 4.7 0 0 0 .3-.2l.3-.1.1-.1h.1v-.3l.1-.1.2-.1.1-.3.1.1Zm-6.4-7.2v-.3a2 2 0 0 0-.6.5l-.3.2-.3.2-.6.3-.1.3-.4.1v.2l-.1.1-.2.4-.2.4h.3c.1-.3.2-.4.4-.4s.3-.2.4-.3c.1 0 .2-.1.1-.2v-.2h.3l.1-.1c0-.1 0-.2.2-.2h.2l-.2-.1H12c0 .1 0 .2-.2.3l-.3.1v-.2h.2c0-.2.2-.3.4-.3l.4-.1v-.2h.2l.3-.3.1-.2Zm7.1 9h-.3l.1-.3v-.2c0 .2-.2.2-.2.2h-.1v.2h-.1a1 1 0 0 0-.3.2H19s0-.2-.1-.1l-.1-.1v-.1l.2-.2h.2v-.2c0-.1 0-.2-.1 0l-.2-.2-.1.4-.2.1-.1.1-.3.1v.2l-.1.3-.2.2c.1 0 .1 0 0 .2v.5h-.1v.5l.2-.1h.2l.1-.3v-.1H18.9h-.1c-.1 0-.2 0-.2-.2h.1v-.2h.3v-.1h.3l.3-.1s0 .1 0 0h.2l.2-.3v-.2l.1-.2Zm-.5 1H19.3h.2Zm-6.7-7.7v-.8l-.2.2h-.1l-.3.2h-.2c0 .2-.1.3-.2.3v.1-.4c.2 0 .3-.1.3-.2h.3l.1-.3h.2v-.5h-.3v.2h-.3a2 2 0 0 1-.4.4l-.3.4h-.1l-.1.1H11l-.2.1-.2.2-.2.3h.1-.3v.2h-.1v.9l.1.2-.1.1-.1.3h.4l.1-.2h.4v-.3h.2l.2-.2h.2l.1-.1.1-.1c.1 0 .1 0 0-.2h.3c0-.2.1-.2.2-.2v-.2h.2l.2-.1-.1-.2h-.1l.1-.1H12.9Zm-1 1.6-.3-.2h-.1l.2.1h.1Zm5.9 4-.1-.3V195l-.3-1h-.3c-.1-.2 0-.3 0-.4.1 0 .1-.1 0-.2H16.9l-.1-.2-.2-.2v-.2a2 2 0 0 1-.8 0c-.2-.2-.5-.2-.8 0l-.4.1-.4.1-.2.3a21.3 21.3 0 0 0-.5.4v.4a8.9 8.9 0 0 0-.2.5l.1.1V196.6l.2.3h-.1v.2c-.1.3 0 .5.1.7l-.1.1V198.5l.3.4v.2c-.1.2-.1.4 0 .4v1l.1.4V201.2l.1.2.1.2.2.1.1.2V202.2c0 .2.3.3.5.5l.8.4V202.8c.5 0 .7-.1 1-.3l.5-.8c0-.2 0-.4.2-.6l.1-.6a8.8 8.8 0 0 0 .3-2.4Zm-6.3-3.9-.1-.2-.1.2h.2Zm7.9 6.7v-.4l-.3-.1h-.3.2c0 .1-.1.2 0 .2h-.3c0 .1 0 .1 0 0 0 .3-.1.4-.2.4 0 .1-.1.1-.2 0l-.3.4-.2.1-.2.2v.1l-.2.3c0 .1 0 .2-.2.2.1 0 .1.1 0 .2v.2h.2v-.1c.2 0 .4 0 .4-.2l.4-.2.6-.6.6-.7Zm-7.5-5.9c0 .1 0 .2-.2.2l-.2.1h.1l.2.1v-.2c.2 0 .2-.1 0-.2Zm1.1 1.6v-.4l-.4.2-.2.3H12c.1-.3.3-.4.4-.5H12l-.2.3h-.1v-.2l.5-.2c.1 0 .3 0 .4-.2H13v-.3l-.1-.3h-.5l.2.2-.2.1v-.3h-.1l.3-.2.2-.1-.2-.3v-.1l-.2.1h-.2l-.2.2c0-.1 0-.2.2-.3l.1-.2-.4.1h-.2l-.1.2h-.2a6 6 0 0 0-.6.3c0 .2 0 .3-.2.3a2.2 2.2 0 0 0-.4.4v.3l.2-.2.3-.2h.2v-.2c.3 0 .4-.1.6-.3l.4-.3v.1l.1.2H12.3h-.1l-.2.1-.2.3h-.2s0 .2-.1.1H11 11.4l-.1.2h-.4l-.2.1h1.1c0 .1 0 .2-.2.3h-.4v.3H11v-.2l.2-.2h.1c0-.1-.1-.1-.2 0H11l-.2.1h-.3l-.1.4c0 .2.1.2.2.2h.2l-.2.2h-.2l.2.1s.1.1.2 0l.2-.1h.6l-.2.1h.1c.1.1.1.1.2 0l.1.2h.3c0-.1 0-.2.2-.2h.2c0-.3.2-.4.3-.4l.3-.1Zm0 .7h-.2c-.2.2-.3.3-.4.2.1.2.2.2.3.2h.2v-.2c.2 0 .2 0 .1-.2Zm-.5.6v-.1l-.2-.1H12a6.6 6.6 0 0 1-.5.5h.3v-.1l.1-.2h.5Zm-.5-.3h-.3v.2l.3-.2Zm-.4-.3h-.2s0-.1 0 0l-.3.1H11l.2-.1v-.2h-.1l-.2.1a1 1 0 0 0-.4.3c0 .1 0 .2-.2.3l.2.2h.1l.2-.4c0-.1.1-.2.3 0 0 0 .2 0 .3.2l-.2-.2v-.1h.2c.2 0 .2 0 .2-.2Zm-.2.7H11h.3Zm0 .3H11.1v-.1l-.4.2-.1.2.3-.2h.4l.1-.1Zm-.3.4-.3-.1.1.1h.2Zm4.2 4.6h-.2c0-.1 0-.1-.1 0l-.3-.3h-.2a26.4 26.4 0 0 1-.8-1.1h-.2V202.2H13c.1-.2.2-.2.3-.2h.2v-.3l.1-.1-.1-.2H13.2v-.2l.1-.1v-.2h-.4v.2l-.2.2v-.4c0-.2.1-.2.2-.2v-.1l.3.2h.1v-.5H13v-.3h-.5l-.1-.1v-.2l-.2.2h-.1l-.2.1v.1h-.2l.2-.2h.2c0-.2.2-.2.3-.2.1 0 .2 0 .1.2h.5v-.2h.2a.8.8 0 0 0-.3-.3v-.2l-.1-.2v.1h-.5l.2-.2h.2c.3-.3.3-.4.3-.5-.1-.1-.2-.1-.4 0l-.3.2c0 .1-.1.2-.2.1l-.1.2h-.2l-.1.2h-.2v.2h-.2l.2-.1v-.2l.2-.1.2-.2.3-.1v-.2H12l-.3.1-.2.2h-.1c0 .2-.1.3-.3.4l-.3.4h.3l.2-.1V199.7c.2 0 .3-.2.3-.2l.2-.1c0-.1 0-.2.2-.2l-.1.2h.1l.1-.1v-.1H12.4a6 6 0 0 0-.3.2v.2h-.5l-.4.4v.5h.3v.2l.2-.1h.1c-.1 0-.2-.1-.1-.2v-.1h.2c0-.1 0 0 0 0l.3-.1h.3s.1.1 0 .1v.2H12.9h-.2v.1l-.1-.1v-.2l-.3.2v.2H12 12.3l-.1.3-.3-.1h-.3l-.1.2v.1h1l-.1.3-.3.1-.2.3.1.2.2.3c0-.2.1-.2.3-.1h.7l-.4.1v.3l-.2-.2v.4c.1 0 .2 0 .2.2h.4l.1-.3c.2 0 .2.2.2.2l-.1.2c.2.2.4.2.7 0v.2h.8l.4-.1Zm-2.6-15.7h-.2l-.1.2h.2l.1-.2Zm7.1 11.7c0 .2-.2.3-.2.3-.1 0-.1 0 0 0v-.2l.1-.1h.1Zm-8.5-8c0 .2-.1.2-.2.2l.2-.1Zm7.7 8.1H18.7 19Zm-8-7.6c-.2.2-.3.2-.3.1l.2-.1Zm7.8 7.7v.1l-.2.1-.1.1H18l.1-.3.2-.1h.2v.1h.2ZM12 193h-.4.1l.2-.1.1.1Zm7 8.2h-.5.2v-.2h.2l.1-.1V201.2Zm-6.7-5.5-.2.2s0-.1-.1 0l-.2-.1h.2l.1-.2h.2Zm5.6 6.5-.2.1h-.2.4Zm-5.7-5.5-.2.2c-.1 0-.2 0-.2.2 0-.2-.1-.2-.2-.2l-.2-.1v-.1h.8Zm-1.2 0H10.7h.1c.1-.1.2-.1.2 0Zm2 3h-.3l-.3-.1h.6Zm.2 1.8H13h.3Zm.7 1h-.2l-.1.1v-.2h.3Zm-1-.7h-.4v.3h-.2l.2-.3h.4ZM20.8 217v.7l-.2.4v.5c0 .1 0 .3-.2.4l-.2.3-.2.3c0 .2-.1.3-.2.3l-.1.3-.1.2-.2.2-.1.2h-.1l-.4.6-.2.4-.2.1v.2l-.4.3-.2.5s-.2.1-.2.3l-.2.3-.1.2-.1.1-.1.4-.2.4a13.5 13.5 0 0 1-.4 1.5v.5l-.1.4V229.4h.2l.2-.1v.3l-.2.1-.1.2v.4H16.7l-.3.3v.3c0 .2.1.2.2.2l-.2.5v.6l-.2.3-.1.5-.4.2c-.3.3-.5.4-.8.4l-.8-.1-.3-.3h-.2l-.1-.3h-.2v-.4h-.5v-.1l.1-.1.1-.1.2-.1-.1-.6-.2-.4c0-.2.1-.2 0-.2v-.1l-.1.3c-.2 0-.2-.1-.1-.2v-.2a3.2 3.2 0 0 0 .4-.6l.1-.2v-.4l.2-.1v-.3l.2-.2.1-.6.3-.7v-.3c.2 0 .2-.2.2-.2a188.2 188.2 0 0 0 3-4.5l.8-1 .5-.6.4-.6.6-.9.5-1v-.2l.1-.3h-.1l-.1.2-.1.2h-.2v.2l.1.2c0 .1 0 .2-.2.3l-.4.2a9.7 9.7 0 0 1-.8.3 68 68 0 0 0-2.5-.4l-.5-.3h-.9l-.5-.2c-.1 0-.3 0-.4.2H13c-.1.2-.2.2-.4.3v-.1l-.1-.2-.3.2-.3.2-.4.2-.5.7-.3 1a26 26 0 0 0 .2 1.1h-.2a1.6 1.6 0 0 1-.2-.4v-.1a2.4 2.4 0 0 0-.3-1v-1.6l-.1-.3a571 571 0 0 1 0-.8c.2-.2.2-.4.2-.7a133.2 133.2 0 0 1-.1-2.1h.3l.2.3v.3a479.8 479.8 0 0 1 .2.7c.1 0 .3 0 .4-.2l.5-.4.4-.2.6-.3.3-.1h1.1l.2.1h.2l.1.3.5.1v.4l.2.1h.5l-.2.1.3.8.2.3.4.2.3.3.4.1v.2l.5.2.5.1.9-.4c.3-.2.5-.4.5-.8l.3-.4c0-.2 0-.3.2-.5l.2-.3v-.3l.2-.3.1-.3.2.4v.4l-.2.4v.4Zm-3 2.1-.4-.2a3 3 0 0 1-.3-.2H16.5l.6.3.7.1Zm-3.1-3h-.4l-.2.2h.4l.2-.2Zm2 2.4h-.3v.1h.1l.2-.1Zm-1.6-2h-.4l-.2.1-.1.2h-.1l.1.3h.3v-.3h-.2.5V216.4Zm1.4 1.8v-.2h-.3l-.1-.3h-.3s0 .1-.2 0l-.2.1.1.2v.1h.4v.1l-.2.1h-.3l-.1-.2v-.4h.3l.2-.2H15l.6-.3h-.2v-.3h-.2c0 .2-.1.2-.3.2l-.2.3-.2.1c.2 0 .3.1.3.2h.2l.1-.1c.1 0 .2 0 .2-.2l-.1.4-.2.1-.1.3h-.1l.7.3.7.2V218.5l.3-.2Zm-2-.9h-.2l-.1.1H14v.2h.2v-.2h.1Zm.4.7c0-.2-.2-.3-.3-.3l-.5.1-.3.3.3-.1h.2l-.1.2h.2l.3.1v-.1c-.2 0-.2 0-.2-.2H14.8Zm-1.7-2.2H13l-.3.3-.2.2-.3.1v.3h-.3c.1.1.2.2.3.1h.1l.3-.3.2-.1c0-.2.2-.3.2-.3h.1l.2-.2v-.1Zm.7 1.9a1 1 0 0 1-.3.2c-.2 0-.3.1-.3.2l.4-.1.2-.3Zm.2-.5-.3-.2-.3.4-.1.2H13l-.2.3-.2.1-.2.1.3.1h.3l.2-.5.4-.1v-.2h.2l.2-.2Zm-2-.8-.3.1h.3Zm.4.7a5 5 0 0 1-.3 0H12h.4Zm-.8-.5-.3.4c.1-.1.2-.2.3-.1V216.7Zm1 1.1-.3.1v.2l.1-.1c.1 0 .2 0 .1-.2Zm-1-.4h-.2l-.2.1.1.2h.2v-.2l.2-.1Zm.6.8v-.1l-.1-.2-.1.2v.1l-.6.2-.4.4H11l-.1.1v.3l-.1.2V219.7l.2-.2.2-.2.2-.2.1-.3c.2 0 .4-.1.4-.3h.2c0-.2.2-.3.2-.3Zm4.3 6-.2.2h-.1v.2h-.1v.2l-.2.1V225.2l-.1.2h-.1l-.5 1-.5.8h.2c0 .1 0 .1.1 0v-.2l.1-.1.2-.1h.2c0-.2 0-.2-.1-.1h-.1v-.1l.1-.2c0-.2.2-.3.4-.4v.3c-.2 0-.2 0-.3.2h.3l.3-.1v-.4H16c0-.2.1-.2.2-.3l.2-.2v-.3l.2-.3v-.3c.1-.2.1-.3 0-.4Zm-.8 4.3-.5.2h.3l.2-.2Zm0-1.6-.5.4-.3.3-.1.2-.1.1h-.2c-.2 0-.2 0-.3.2v.4l-.2.4v.3-.2h.3l.1-.3.2-.3v-.2a8.2 8.2 0 0 1 .2-.2l.2-.1c0-.2.1-.3.2-.3s.2 0 .1-.1l.2-.2.1-.2.1-.2Zm-.3 1.4c-.1 0-.3 0-.4.2l-.3.4.2-.2h.2l.1-.3.2-.1Zm-.6.9h-.6l-.5.7-.2.6.3-.3.2-.3.2-.2.2-.3.2-.2h.2Zm1.3 2.2v-.5l-.3.1h-.1l.1-.2.3-.2v-.2l-.1-.2H15.8c0 .3-.2.4-.3.5-.2 0-.3.2-.4.3l-.3.2-.2.2a.6.6 0 0 1-.3.2 6.4 6.4 0 0 1 .5-.6l.2-.3.3-.2.2-.2.2-.2.3-.2.2-.3v-.6l-.1-.5-.3.3-.4.2-.1.2H15c0 .2-.1.3-.2.3l-.1.3h-.2c0 .1 0 .1-.2 0l-.2.4-.1.2h-.2v.2l-.3.1-.2.3H13.7c0 .2-.1.2-.2.2v.3h.2v-.3h.1l.2-.2h.1l.1-.2h.2c0-.2 0-.3.2-.4l.4-.3.2-.4.4-.3h.2v.3h-.2l-.3.4-.3.2s0 .2-.2.2l-.3.2-.1.2c0 .2-.2.2-.3.1l-.1.5-.3.2-.1.3H13.9l.2-.3v-.1h.4s0 .1-.1 0l-.2.2v.4c-.1 0-.2 0-.3.2v.2h.2l.3-.2-.4.2v.2l.2-.1h.2l-.2.2.2.1h.1v.2h.5c.1-.1.2-.1.2 0v-.1l-.2-.1c0-.2.1-.2.3-.2l.1.2c.1 0 .2 0 .3-.2.2-.1.3-.3.3-.4v-.5h-.2.2l-.1.2h-.2c0 .2-.1.3-.2.3l-.2.1v-.1h.1l.1-.2v-.2h.2l.2-.4.3-.2Zm-.3-.3-.2.2v-.2h.2Zm-.3.3c-.1 0-.2 0-.3.2v.2c-.1-.2-.1-.4 0-.4l.1-.1.2.1Zm-.5.7h-.3v-.2h.2v.2ZM20.9 256.4v.2l-.1.2v2.2c0 .1 0 .2-.2.3v.4l-.1.3-.1.4-.2.2-.1.4-.3.4c0 .2-.1.3-.2.3l-.2.3a6 6 0 0 0-.6.5l-.8.5-.3.1-.2.1-.3.2-.3.2h-.6l-.3.2a1 1 0 0 1-1 0l-.2-.1h-1.1a101.8 101.8 0 0 1-1.5-.6l-.2-.1-.3-.1-.3-.1-.2-.3a3 3 0 0 0-.5-.4h-.4l-.1-.4-.1-.2-.2-.2-.1-.2v-.2h-.2V260.5l-.1-.4a70.3 70.3 0 0 0-.1-.7v-1.9c0-.4 0-.7.3-1l.5-.8.3-.3c.2 0 .2-.2.2-.3l.3-.3.2-.2-.1-.3-.3-.2-.1-.3h-.4l-.3-.2.2-.1.1-.2a1 1 0 0 1-.2-.5 3.2 3.2 0 0 0-.3-1V251.1l-.2-.1h-.1v-.2l.1-.1.2-.2v-.5l.2-.3v-.6l.5-.7.4-.8a14.2 14.2 0 0 0 1-1c.3 0 .5-.1.7-.3l.6-.4.5-.1a5.8 5.8 0 0 1 1-.3h1.2c.3 0 .5 0 .7.2l.6.2.2.2h.2l.3.3.2.1.3.2.1.2.1.2v.1c.3.2.6.5.7.8l.5 1 .2.3v.9l.1.5-.2.6v.3l-.3.5-.2.4-.2.2-.2.2-.2.2-.2.2.2.1a2.4 2.4 0 0 1 .4.2l.1.2.2.2.4.4c.1 0 .2.1.2.3 0 .1.1.2 0 .2v.1l.2.3c0 .1 0 .2.2.2v.5l.2.4h.2Zm-2-7.7v-.6l-.5-.6.1.3.1.2.1.2v.4h.2Zm.7 2-.2.1h-.1l.1.2.2-.3Zm-.6 1H19v.3l.1-.3Zm-.3-1.3v-.5l-.3-.3.1-.2v-.2l-.1-.3v-.2l-.1-.3c0-.3-.2-.6-.4-.9l-.4-.8-.4-.2a4.9 4.9 0 0 1-.6-.3c0-.1 0-.2-.2-.2h-.8l-.9-.1v.1l-.2.1h-.5l-.2.2-.3.1a2.6 2.6 0 0 0-1 1l-.4.6v1.3l.2.6v.2c.1 0 .2 0 .2.2l.1.1h.2l.2.4.4.3.7.6a11.7 11.7 0 0 0 1 .3c0 .1 0 .2.2.2a13.5 13.5 0 0 1 .5.1l.2.2c.4 0 .7.2 1 .3l1.2.3.3-.6.2-.7v-1c0-.1.1-.3 0-.4Zm.8 4.2c0-.2-.2-.3-.3-.4-.1-.1-.3-.2-.5-.1l-.1.1h-.2l-.2.3h.4l.1-.1.3-.1v.2c0 .2-.2.2-.3.3l-.3.1c0 .2.1.3.2.3l.1-.1.2-.2h.2l.3-.2.1-.1Zm-7.7-7c0-.1-.1-.1-.2 0h-.1.3Zm6.4 7H18l-.1-.1v.2l-.3.2h.5v-.2l.1-.1Zm.8 1.4H19V255.6l-.2-.1c0 .2-.1.3-.2.3h.3l.1.1h.1Zm-.6-.8c-.1 0-.2-.1-.2 0l-.2.1v.2c.2 0 .3-.1.4-.3Zm-6.8-7-.2.4-.2.2v.1l-.2.1h-.1v.2l.2-.1.3-.2.2-.3v-.3Zm7 5.9c0-.2-.1-.3-.2-.3v-.2h-.2c0 .1 0 .1 0 0l-.4.3h.2l.2-.1-.1.2-.3.1-.3.2h-.2c0 .2-.2.3-.3.4h-.3v.2h-.1a1 1 0 0 0-.3.3l-.3.1-.1.2-.2.2h.4l.2-.1.4-.2v-.2l.4-.1v-.2h.3l.1-.2.3-.1c0-.2 0-.2.2-.2l.3-.3H18.6Zm-.8 1.1h-.3v.1h.3Zm1.1 0-.2.2H18.4l-.1.2-.4.2-.3.3-.3.2c.4 0 .6-.2.7-.4h.4v-.2h.2c0-.2.1-.3.2-.3l.1-.2Zm0 1h-.4c-.1 0-.2 0-.1.2l-.2.1c-.2 0-.2.1-.3.2v.1l.2.1v-.2c.2-.2.3-.3.5-.3v-.1h.3Zm-1.1-2.6h-.2c0 .1 0 .1 0 0l-.3.2a1 1 0 0 0-.3.2l.2-.2.2-.1.2-.1s.1 0 0-.2h-.5l-.4.1a3 3 0 0 0-.4.3l-.4.3-.3.1-.1.2h-.2c0 .1 0 .2-.2.3l-.3.1-.1.3c-.1 0-.2 0-.2.2H14.8l.2.1h.2l.3-.1.3-.3.3-.1.3-.2.3-.2.3-.3c.2 0 .4-.2.5-.3l.3-.3Zm-.2 2-.1.2.1-.1Zm-.1-.2h-.2l-.3.3-.3.2h.4a16.8 16.8 0 0 0 .3-.3v-.2Zm-5.7-5.1h-.2.2Zm8.7 7.4V257.1H20c0 .2 0 .2-.2.3h-.3l.2-.2.2-.1-.2-.2.2.2.3-.1H20l-.2-.2H20.2v-.6h-.1v.1h-.3l-.1-.1.2-.1h.2v-.5l-.2-.1v-.4l-.1-.1h-.1l-.3.2-.2.2-.2.2h-.1c.2 0 .4 0 .6-.2v.3s.1 0 0 0c0 .2-.1.3-.2.3l-.4.3v.2l-.3.2h.2c0-.1.1-.1.2 0 0-.2.1-.3.2-.3h.2l-.1.1H19l-.2.3h-.1l-.2.2h-.1c0 .1 0 .2-.2.2v.3h.3l.2-.2v-.2l.1-.1.4-.3c0-.1 0-.2.2-.2 0-.2.1-.2 0-.2h.5l-.3.3-.3.2-.2.2v.1a1 1 0 0 1-.3.2v.1h.2c0 .1 0 .2-.1.1h-.1v.3l-.2.2-.1.1.3.1h.2l-.2.3h.4l-.2.1-.2.2V260.1c.1 0 .2-.1.2-.3v.4h.1l.1-.1H19.6v-.2s.1-.1.2 0l-.2.2.1.3a4.7 4.7 0 0 0-.9.8V261.5l.3-.2.4-.2a5 5 0 0 0 .7-1.4h-.5.3l.4-.5v-.8a1.8 1.8 0 0 0 0-.5l.1-.2Zm-8.9-8.1v-.1l-.2-.1-.4.4c-.1 0-.3.2-.3.4h-.2l-.1.2c.2 0 .4-.2.6-.4l.6-.4Zm5 3.5-.2-.1H16v.1a2 2 0 0 1-.4.3l-.4.3-.1.2h-.3c0 .2-.2.3-.4.3-.2.1-.3.2-.3.4l-.3.1-.1.2h.6l-.2.1-.2.2h.4l.2-.2.2-.1.2-.3h.3v-.4l.3-.1c-.2 0-.3 0-.3.2h-.4v.3h-.2l-.2.1h-.2c.2 0 .2-.1.2-.2h.1l.3-.3h.3c0-.2.1-.2.2-.3.1 0 .2 0 .2-.2l.3-.1h.2c0-.2.2-.3.3-.3.1 0 .3 0 .4-.2Zm-1 0c0-.2-.1-.3-.2-.3 0 0-.2 0-.2.2l-.3.1c0 .1-.1.1-.2 0l-.1.3h-.2l-.6.5c-.2.1-.4.3-.5.6l.2-.1.1-.1h.2l.3-.2.3-.3c.1 0 .2 0 .1-.2h.2l.2-.2c.2 0 .3 0 .4-.2 0 0 .2-.1.4 0Zm-3.9-3.2a4 4 0 0 0-.7.5l-.8.4v.2h.1l.4-.2c.2 0 .3-.2.5-.3l.1-.1v-.2h.2l.1-.1.1-.2Zm3.1 2.7c-.1-.2-.3-.2-.4-.1l-.5.2-.1.1h-.1v-.2h.2l.3-.3H14l-.2-.1c0-.2-.1-.2-.2-.1h-.3l-.1.3h-.3c0 .2-.1.3-.2.3h-.2c0 .1 0 .2-.2.2h-.1c.2-.3.3-.4.5-.4l.1-.3v-.1l.3-.1.2-.1h.1l.1-.2-.2-.2h-.3l-.2.2v-.2h.3l-.1-.2h-.2l-.3-.2h-.2l-.2.3h-.4.4v-.2l-.1-.1h-.2c0 .2-.1.2-.2 0l.7-.3c0-.2 0-.3-.2-.3a1 1 0 0 0-.3.1v.1l-.2-.1-.4.2h-.3v.3l.3-.1.3-.3h.1l.1.1a11.6 11.6 0 0 0-.6.3l-.1.3-.2.1-.2.3h-.2V252.5h.4c0-.2.1-.3.3-.3l-.2.2-.2.2v.5h.2l.1-.1v.2l-.2.2v.1h.2v.2l.1.1.1.2.2.2.2.2h.2l.2-.2h.3l.1-.4h.3l.2-.3h.2c0-.1.1-.2.2-.1l-.2.1c0 .1 0 .1-.2 0l-.1.3c0 .1-.2.2-.3.1l-.1.3s-.1.1-.2 0v.2h.2v-.1l.2.1-.2.1v.2l.3.2c.2 0 .4 0 .6.2 0-.1 0-.2.2-.2l.2-.2H13.3l-.1.2H13l-.1-.3.2-.1h.2l.2-.5c.1-.2.3-.3.4-.2v-.2h.2l.1-.2.2-.2V252.8l.4-.2Zm3.7 8a9.5 9.5 0 0 0 0-1v-.4l-.3-.3c.1 0 .1-.1 0-.2l.1-.3-.3-.5a3.2 3.2 0 0 0-.7-1c-.1-.2-.4-.3-.6-.4l-.5-.3-.4-.2h-.4l-.4-.1a3.4 3.4 0 0 0-.7-.2 25.2 25.2 0 0 1-2-.5 1 1 0 0 0-.4.7 1 1 0 0 0-.2.3l-.2.4v.5l-.1.3a1 1 0 0 0 0 .8l-.1.2v1l.1 1c.1.2.2.3.1.5l.2.4a193.8 193.8 0 0 0 1 1.1l.3.1c.2.3.4.5.7.6a4.3 4.3 0 0 0 1.6.2h1a2.4 2.4 0 0 0 .6-.7l.3-.2.3-.1.3-.3.2-.4c.1-.1.3-.3.3-.5l.2-.6Zm-7.2-5c-.1 0-.2 0-.3.2 0 .1-.1.2-.3.2l-.1.3v.1h-.2v.1l-.1.1h-.1c0 .1 0 .2-.2.3 0 0-.1.1 0 .2l.3-.3h.4l-.2.2v.1l-.2.2h-.1l-.2.2c-.1 0-.2.2-.1.3h.4l.2-.2-.1-.1h.3c0-.2.1-.3.2-.3v-.6l-.2.1h-.2l.2-.2.2-.1.1-.2.2-.2.2-.2v-.2Zm-.6 2.2-.1.2-.2.1v.2l-.1.1H10v-.2h.1l.1-.3h-.2c0 .2-.2.2-.3.2l-.1.3v.2h.2l.1-.2v.3l-.1.2h.1l.3-.1v-.2h.2l.2-.4v-.4Zm.1 2v-.2a3 3 0 0 1 .1-.4v-.2l-.2.5v.5l-.1.2.1.1v-.2l.1-.3Zm-.3-1h-.2l-.2.2v.2l-.3.2v.2l.2-.2.3-.2v-.2l.2-.2Zm-.2 1-.2-.1c-.1.2-.1.3 0 .4l.2-.3Zm0 .7c-.2 0-.3.1-.3.2l.2.1V260.5Zm2.1 2.3c0-.1 0-.2-.2-.2l-.2-.2h-.4a3.4 3.4 0 0 0 .8.4Zm-1-.7h-.2a171.7 171.7 0 0 0 .1 0Zm8.4-5.1v.1h-.2l-.1.1-.1.1.1-.1h.1c0-.2 0-.3.1-.2Zm.3.8-.1.2h-.1s0-.2.2-.2Zm.3.5H20.1c0 .3 0 .3-.2.3l.2-.2v-.2H20.4Zm-.6-.8-.3.2c0 .1 0 .2-.2.2v.2h-.4l.2-.2c.2 0 .3-.2.3-.3h.2c0-.1.1-.1.2 0Zm0 .5v.1l-.1.2v-.2h.1Zm-6-5.6h-.2.2Zm.6.6-.3.1-.2.2.2-.4h.3Zm5.4 5.8-.2.2v.1-.2l.1-.2h.1Zm-6.1-6-.3.2h-.2v.2h.2l.1-.2.2-.1Zm-1.1-.9h-.3a2 2 0 0 0-.2.2l-.1.2h-.1l-.2.1-.3.1h.1l.1-.2.3-.1.1-.2.2-.1h.4Zm-1-.1-.3.1v-.2l.2-.2v.1l.1.2Zm1.6 2-.3.1-.2.2.2-.2.1-.2h.2Zm-1-.7-.3.1-.1.1c-.2 0-.2-.1-.1-.2l.2-.1h.2v.1Zm-.7-.4-.2.1h-.1v-.2l.3.1Zm.4.8-.2.2-.2.2H11.2l.1-.1v-.2l.1-.1.1-.1V253.7h.2l.2-.2ZM20.7 284.2v.2l-.2.1v1.2a4.7 4.7 0 0 0 0 .7v.2l-.1.1v.8l-.1.4-.1.2-.2.6-.2.5-.1.6-.2.2v.2l-.2.2v.1l-.1.1H19v.3l-.1.3-.4.4-.2.1a2 2 0 0 0-.3.4l-.3.3a2.2 2.2 0 0 0-.3.3l-.3.2v.2h-.4l-.2.2H16.2c-.1.2-.2.2-.3.2H15c0 .1-.1.1-.2 0l-.3.1-.3.1h-.6l-.6-.1-.9-.3-.6-.6-.4-.2-.2-.2v-.2l-.3-.1v-.2l-.2-.2-.2-.4v-.2c-.1 0 0-.2 0-.2l.1-.3.4-.5c0-.2.2-.3.3-.5l.2-.2.6-.2H13l.2.3h.3a36.3 36.3 0 0 1 .1 1.3l-.1.5-.2.4c-.2 0-.2.1-.3.2 0 0-.2 0-.2.2h-.5l-.1.2-.2.2a44 44 0 0 1 1.2.7h1.3l.4-.3a14.4 14.4 0 0 0 1-.3l.3-.1v-.3l.2-.2v-.2l.4-.5.2-.6.1-.1.1-.2v-.8l.2-.3c0-.1.1-.3 0-.4l-.1-.2v-.3l.3-.2v-.5l-.2-.2v-.3l.2-.2v-.3l-.2-.4.2-.3c0-.2-.1-.3-.3-.2l-.2.4-.2.3h-.2v.2a7.2 7.2 0 0 0-.7.3l-.3.2h-.3l-.3.2h-.5l-.1.1h-1.6l-.2-.2h-.2a1 1 0 0 1-.3-.2h-.3c-.1-.2-.2-.4-.4-.4a4 4 0 0 0-.5-.2v-.2l-.3-.1h-.2l-.2.2-.1-.1-.1-.2h.1l.1-.1v-.4l-.2-.3-.3-.1V284.5l-.1-.2v-1.7h-.2l.1-.5a4.6 4.6 0 0 0 .1-1V280.5l.2-.1v-1h-.2v-.2l.1-.3h.1l.1-.1v-.3c.2 0 .4-.2.5-.4l.3-.5.4-.5.5-.4v-.1l.1-.1c.2 0 .3-.2.4-.3l.4-.3.6-.4.7-.3h.7a26 26 0 0 1 2.3.4c.2 0 .3.2.4.3.2.1.3.2.4.1l.1.1.1.1.3.3.4.2v.3l.2.2h.5v.2l-.2.2.2.2h.1l.1.5.1.4c.2 0 .2.2.3.4l.2.5v.6a6.5 6.5 0 0 0 .3.9v1.5l.1.2s0 .1-.1 0v.5l.1.2v.6h.1l.1.1Zm-2.1-6.8h-.3l-.1.2h.2l.2-.2Zm-1-.8c0-.1 0-.2-.2-.2l-.3-.1s.1.1 0 .2l.2.1H17.6Zm1.3 1.5v-.3h-.3v.1l-.1.2v.1l-.4.2-.2.3.3-.2h.4c0-.1 0-.2.2-.2l.1-.2Zm-.3-.3-.3-.1-.2-.1a19.8 19.8 0 0 1 0 .4c-.2 0-.3.1-.3.2l-.2.1v.2h.2l.2-.2.2-.3.4-.2Zm.7.8v-.3H19l-.2.2-.2.2-.1.1h-.2v.2H18v.3h-.2l-.1.2v.1l.6-.3.4-.3.3-.2h.1l.1-.2Zm-1.2.3H18v.2h.1l.1-.2Zm-.1 1h-.2c-.1.1-.1.2 0 .2v.1l.1-.2c.1 0 .1-.2 0-.2Zm2 .8-.1-.4v-.5l-.2-.5-.1-.3h-.3l-.3.4h-.2l-.3.2-.1.1-.1.3-.3.3-.2.1-.1.2v.2l.1.1.4-.2v-.1l.1-.2.3.2-.2.2h-.2l-.1.1v.2l-.1.2-.3.2v.2l.1.1.2.1h.3v.1c-.1 0 0 0 0 .1l-.2.2v.1s-.1.1-.2 0l-.1.2-.1.2v.4h.3V282.8h.2l.1-.3h.3c0-.3.1-.4.2-.5l.3-.1.1-.2.2-.2h-.3l-.2-.1.2-.1.2-.2h.1l.2-.1h.1v-.3l.3-.1Zm-2 1.6V282l-.2.2.1.2h.2Zm2.2 1.6h-.4l-.2.2c-.1 0-.2-.1 0-.2l.1-.1.3-.1.1-.2v-.4l-.3.2H19h.4l.3-.2h.2c-.2 0-.2-.1-.2-.2H19.9l.1-.1v-.2l.1-.2v-.1c-.2 0-.3 0-.3.2h-.2l-.1-.1-.1-.1-.3.3-.2.2.2-.2v-.2l.1-.1.2-.1.3-.1h.2l.1-.5v-.3l-.1.1h-.2v.2l-.1.1-.2.1-.1.2a4 4 0 0 0-.3.3h-.1l-.1.2v.1h-.2l-.2.1c0 .1 0 .2-.2.3V283.3c-.1.2-.2.2-.3.2l-.1.3h-.2v.4h.2l.4-.1-.3-.2.2-.1.2-.1c0-.1.1-.2.2-.1h.2v-.1l.2-.2.2.1c0 .2 0 .2-.2.2l-.3.1h-.3s-.1.1 0 .1h.2v.3c-.2 0-.3.1-.3.2h-.3v.2s-.2.1-.2 0l.1.3h.4s.1.1.2 0H18.7l.2.2-.2.2h-.1a57.6 57.6 0 0 0-.3.3v.1H18v-.2h.3l.1-.3h-.2c0 .1-.1.2-.2.1 0 .2-.1.3-.2.3v.3h.2l.2-.2h.5v-.3l.2-.1c0-.2.2-.3.3-.3h.2l.2-.3h.1c0-.1 0-.2.2-.2l.1-.2.1-.3Zm-2.7-4.4-.2-.5v-.4H17l-.2-.1h-.1c0-.4.1-.5.4-.6v-.6l-.2-.5c0-.3-.1-.4-.3-.5l-.4-.2H16v-.1a2 2 0 0 0-1 0 33.8 33.8 0 0 1-1.6 1.3l-.1.4-.2.2H13.3a.9.9 0 0 1-.4.6V279.1l-.1.2-.1.2v2.1h-.1c0 .2.1.2.2.2h.3l-.2.2v.2h-.2v.5l-.1.1h.2v.3h-.2l.1.4v.4c.1 0 .2.1.2.3l.1.2a21.4 21.4 0 0 1 .3.5c.1 0 .2 0 .2.2l.1.5h.3v.2H14.3c.1 0 .1 0 0 0v.3l.3.2h.3l.3.1c.3 0 .5 0 .7-.2.3 0 .4-.3.6-.5v-.3c.2 0 .3-.2.3-.3l.2-.9.2-1-.1.1h-.2v-.2l.2-.2.1-.2v-.1l-.2.1h-.2l-.2-.2.2-.2.1-.1h.2c0-.2 0-.4.2-.5.1 0 .2-.2.1-.4h-.2v.2l-.2-.2h-.2l.3-.2h.1v-.3h.2v-.4h-.2l-.1-.1v-.4l.4-.2v-.2Zm-4.8-2.5-.4.4c-.2 0-.3.2-.4.3l-.3.3c0 .1-.1.2-.2.1h-.2l.2.1h.2l-.2.1H11v.3H11l-.3.3v.2l-.2.2v.2h-.2v.2l-.1.2v.2h.1v-.2c.2 0 .3-.1.3-.2 0-.2.2-.2.3-.3l.2-.2.3-.3.1-.3.3-.3h.3v-.2l.2-.1c0-.2 0-.3.2-.3l.1-.3v-.2l.1-.2Zm7.4 8.3v-.6l-.1.2h-.2c0 .2 0 .3-.2.4l-.3.2-.2.2c0 .1 0 .2-.2.2h-.2v.3h-.1l-.1.2-.2.2h.3v.2c0 .2-.2.2-.3.3h-.2v.3c-.2 0-.2.1-.2.2l.2.2.2-.1H18l.2-.2h.1l.3-.2h.1l.1-.1.2-.2h.3l.1-.2a3.3 3.3 0 0 0 .4-.2l.2-.1.1-.2v-.3h-.3.2l-.3-.3v.1l-.2.2v-.2l.2-.2h.3l.1-.3Zm-1.5.7c-.1 0-.2-.2-.3-.1l.1.1h.2Zm-6.2-7a1 1 0 0 1-.2.2l-.6.4-.3.3.1.2.2-.2h.1l.2-.3.2-.1.1-.1.1-.2.1-.3Zm6 7.2c-.2 0-.3 0-.4.2h.2l.2-.2Zm1.7.8-.1.1h-.1v-.2h-.4c0 .2 0 .2-.2.2-.2.1-.2.2-.2.3H19c-.2.2-.2.2-.3.1l-.1.2v.1h-.4c0 .3 0 .4-.2.5l-.2.2c.1.2.2.2.2.1h.2v-.3h.1l.1.1h.4l.1-.1h.5l-.2.2v.1l-.3.1a.5.5 0 0 0-.4-.1l-.3.1h.4v.3H19.2v-.2h.2v-.1l.2-.1.1-.3V288l-.1-.2v.4h-.2l-.1-.1h-.7.7c0-.2 0-.3.2-.3l.2-.1c.2-.1.4-.4.4-.7Zm-.6 2h-.3l.1.1h.2Zm-8.5-9-.5.4-.4.3v.3c-.1 0-.1.1 0 .2a2.5 2.5 0 0 1 .3-.4l.1-.1h.2v-.3l.1-.1.2-.2Zm7.7 9.1h-.1l-.1-.3v.5h.2v-.2Zm-6.2-9.4h-.3v.1l-.2.1-.2.2-.1.2h-.1l-.4.4a1 1 0 0 1-.4.1v.2l-.2.1-.2.2v.2a1 1 0 0 1-.3 0l-.2-.2v.5c.2 0 .2 0 .2.2l.1.2.1-.2s.1 0 0-.1v.4a1 1 0 0 0-.4.2v.2l.1.3h.6-.2l-.2.1v.2l-.2.1v.3h.3l-.2.6.2.1h.2l.2-.2c0-.2.1-.2.2-.2v-.2h.2v.1l.3-.1h.1l.1-.2v-.1c.1-.2.3-.2.5-.2l.1-.3.1-.4-.2.2v-.6h.2l.1-.4h-.2c0-.1 0-.2-.2-.2v.3h-.4c.1 0 .2-.1.2 0v-.1l.3-.2v-.1l.2-.4v-.4a2.5 2.5 0 0 0-.4.3v-.3l.1-.1.2-.1.2-.4v-.4h.1Zm5.7 9.7h-.4l.2.2h.1l.1-.2Zm-5.8-5.9-.2.1H12v.3h.1l.3-.1v-.1l.1-.2Zm2.2 3.3h-.3l-.2.1h.5Zm-2-2.3v-.4l-.3.1h-.2l-.2.4-.4.2-.1.3-.2.1h.2v-.1l.4-.1.3-.1a21.4 21.4 0 0 1 .3-.4h.2Zm1.5 2.1H14c0-.2 0-.2-.2-.2a.8.8 0 0 0-.3-.3l-.2-.2v.2H13v.3h-.3v.1l-.1.2.3.1c.1 0 .3.1.4 0l.2-.1H14.1Zm-1.2-1.6c-.1-.1-.2-.2-.3-.1h-.3c0 .2 0 .3-.2.3 0 .2-.1.2-.3.2h-.3c0 .1.1.2.2.1h.2c-.1 0-.2 0-.1.1v.1c0 .1 0 .1 0 0h.2l.2-.2.2-.1c.3-.1.4-.3.5-.4Zm.4 1v-.1c-.1 0-.1-.1 0-.2l-.2-.2-.2.2-.1-.1v-.2h-.5v.3l-.4.4-.2.1.1.2h.3v-.3l.3-.1v.2l.2.2.2-.2.2-.1h.3Zm6 3.4-.2.1c-.2.2-.3.2-.5.2h-.3l-.1.3-.3.1h.2l.1.1a2.4 2.4 0 0 0-.7.5l-.1.2v.3l.1-.1.1-.2.2.2-.2.2v.1a14.2 14.2 0 0 0-.8.7l-.1.3h-.2v.3h-.2l-.2.1v.1c.3 0 .7-.2.9-.4l.8-.7.7-.9c.3-.2.5-.5.6-.9.2-.2.3-.4.2-.6Zm-8.4-4.9h-.1c0 .1-.1.2-.2.1-.2.1-.2.2-.3.4 0 0 0 .2.2.2v-.2l.1-.1.3-.1c-.1-.1-.1-.2 0-.2v-.1Zm.6 1.2h-.3l-.1.1h.2v-.2h.2Zm-.5-.3h-.2.2Zm1 4.3-.2-.1.1.1h.2Zm1 1.4-.2-.2v.4l.1-.2Zm.3-.8v-.3h-.6l-.2-.1.2-.2h-.4a1 1 0 0 1-.4.2l.1.1h.1l-.1.1h-.1v.2h-.4l-.1.2h.1l.1-.1v.3c-.1 0 0 0 0 .1h-.4c0 .3 0 .4.2.4l.3-.1c0-.2.2-.3.2-.3 0-.2.1-.3.3-.2V290.3l.1-.1h.2l.2-.2.2.1h-.3c0 .2 0 .3-.2.4l-.2.3h-.3v.3h-.2v.2h.5c.2 0 .3.2.3.2l.2-.1s.1 0 0-.1l-.2.1v-.5h.4c0-.4.2-.5.4-.6Zm-1.8 1H11c0 .1-.1.2-.3.2l.2.3.2.2v-.5h.2v-.2Zm.1 1c0-.2-.1-.3-.3-.3l.1.2c.1 0 .2 0 .2.2Zm7.8-12.4h-.1l-.2-.1.2.2h-.4l-.1.2v-.3l.4-.2h.2v.2Zm-.5.4-.2.1H18.4v-.2l.3.1h.2Zm.4.4-.3.2v-.1l.1-.1h.2Zm.3-.3.1.1v.2h-.3v.3l-.1.2a7.6 7.6 0 0 1-.4.2h-.3.1v.1l.2.2h.1l-.2.1h-.4c0-.1-.2-.2-.3-.1H18l.2-.1.1-.2h.4c0-.3.2-.3.3-.3l.4-.2v-.1l.2-.3h.1Zm-.9 1.5v.1h-.2v-.1c-.2 0-.2-.1-.3-.2l.3.2h.2Zm.7 1h-.1l-.2.2c-.1 0-.1-.1 0-.2l.2-.1Zm-.6 0c0 .1 0 .2-.2.2h-.2l.2-.1h.2Zm1 1.4h-.1l-.1.2-.3-.2H19l.1-.1.2-.1.2.2h.3Zm-7.4-6.7-.2.2v-.2c.1 0 .1 0 0-.1h.2Zm6.8 7.2c-.2-.2-.2-.3 0-.4v.4Zm-.5-.3-.2-.1.2-.1v.2Zm1 2H19.3v-.2l.2.1Zm-.3-.3H19v.2h-.4.2l.1-.1v-.2h.2v-.2l.1.2s.1 0 0 .1Zm-.1.5v.1l-.2.1v-.2h.2Zm.5.6-.2.1h-.2c0 .1 0 .2-.1.1H19l.3-.1.2-.2h.2Zm-.7.3c0 .2-.2.3-.2.3h-.1l.1-.1v-.2h.2Zm-7.3-6.4-.3.1v.2H11.1v.3l-.2.1-.2.2.1-.2.2-.1v-.2h-.2l.2-.2.2-.3.1.1h.4Zm0 .8-.2.2-.2.1v-.2l.4-.1Zm.2.8-.2.2-.1.2-.2.1.2-.2v-.3H12Zm-.5.1-.2.2v-.1l.1-.1h.1Zm-.4-.1h-.3v-.2h.2v.2Zm.5.6h-.2.2Zm-.7-.4-.2.1.2-.1Zm.4.5v.2c-.1 0 0 0 0-.2Zm-.2-.3-.3.3h-.1l.2-.2h.2Zm7 7.4c-.1.2-.2.3-.3.2v-.3l.3.1Zm-5.2-4.8-.2.2h-.1c0-.1.1-.2.3-.2Zm-.4 5.4H12h.3Z"/>
</svg>