<svg width="500" height="500" viewBox="0 0 500 500" fill="none" xmlns="http://www.w3.org/2000/svg">
<g filter="url(#filter0_iii_1655_8)">
<circle cx="250" cy="250" r="250" fill="#FEDA1E"/>
<circle cx="250" cy="250" r="250" fill="url(#paint0_radial_1655_8)"/>
<circle cx="250" cy="250" r="250" fill="url(#paint1_radial_1655_8)" fill-opacity="0.5"/>
</g>
<ellipse cx="189" cy="180.385" rx="40" ry="39.6116" fill="white"/>
<circle cx="189" cy="181" r="21" fill="black"/>
<path fill-rule="evenodd" clip-rule="evenodd" d="M181.999 170.5C182.162 170.5 182.321 170.553 182.451 170.651C182.581 170.749 182.676 170.887 182.72 171.044L183.533 173.89C183.709 174.503 184.037 175.061 184.488 175.512C184.938 175.963 185.497 176.291 186.109 176.466L188.955 177.279C189.112 177.324 189.25 177.418 189.348 177.549C189.446 177.679 189.499 177.837 189.499 178C189.499 178.163 189.446 178.321 189.348 178.451C189.25 178.582 189.112 178.676 188.955 178.721L186.109 179.534C185.497 179.709 184.938 180.037 184.488 180.488C184.037 180.939 183.709 181.497 183.533 182.11L182.72 184.956C182.676 185.113 182.581 185.25 182.451 185.348C182.321 185.446 182.162 185.499 181.999 185.499C181.837 185.499 181.678 185.446 181.548 185.348C181.418 185.25 181.323 185.113 181.278 184.956L180.465 182.11C180.29 181.497 179.962 180.939 179.511 180.488C179.061 180.037 178.502 179.709 177.889 179.534L175.043 178.721C174.887 178.676 174.749 178.582 174.651 178.451C174.553 178.321 174.5 178.163 174.5 178C174.5 177.837 174.553 177.679 174.651 177.549C174.749 177.418 174.887 177.324 175.043 177.279L177.889 176.466C178.502 176.291 179.061 175.963 179.511 175.512C179.962 175.061 180.29 174.503 180.465 173.89L181.278 171.044C181.323 170.887 181.418 170.749 181.548 170.651C181.678 170.553 181.836 170.5 181.999 170.5ZM190.999 167.5C191.167 167.5 191.329 167.556 191.461 167.659C191.593 167.762 191.687 167.906 191.727 168.068L191.985 169.104C192.221 170.044 192.955 170.778 193.895 171.014L194.931 171.272C195.094 171.312 195.239 171.406 195.342 171.538C195.445 171.67 195.501 171.832 195.501 172C195.501 172.168 195.445 172.33 195.342 172.462C195.239 172.594 195.094 172.688 194.931 172.728L193.895 172.986C192.955 173.222 192.221 173.956 191.985 174.896L191.727 175.932C191.687 176.095 191.594 176.239 191.462 176.342C191.33 176.446 191.167 176.502 190.999 176.502C190.832 176.502 190.669 176.446 190.537 176.342C190.405 176.239 190.312 176.095 190.271 175.932L190.013 174.896C189.898 174.434 189.659 174.013 189.323 173.676C188.987 173.34 188.565 173.101 188.103 172.986L187.067 172.728C186.905 172.688 186.76 172.594 186.657 172.462C186.554 172.33 186.498 172.168 186.498 172C186.498 171.832 186.554 171.67 186.657 171.538C186.76 171.406 186.905 171.312 187.067 171.272L188.103 171.014C188.565 170.899 188.987 170.66 189.323 170.324C189.659 169.987 189.898 169.566 190.013 169.104L190.271 168.068C190.312 167.906 190.406 167.762 190.538 167.659C190.67 167.556 190.832 167.5 190.999 167.5ZM189.499 181C189.657 181 189.811 181.049 189.938 181.141C190.066 181.234 190.162 181.364 190.211 181.513L190.605 182.696C190.755 183.143 191.105 183.495 191.553 183.644L192.736 184.039C192.885 184.089 193.015 184.185 193.107 184.312C193.198 184.44 193.248 184.593 193.248 184.75C193.248 184.907 193.198 185.06 193.107 185.188C193.015 185.315 192.885 185.411 192.736 185.461L191.553 185.856C191.106 186.006 190.754 186.356 190.605 186.804L190.21 187.987C190.16 188.136 190.065 188.265 189.937 188.357C189.81 188.449 189.657 188.498 189.499 188.498C189.342 188.498 189.189 188.449 189.062 188.357C188.934 188.265 188.838 188.136 188.788 187.987L188.393 186.804C188.32 186.583 188.196 186.383 188.031 186.218C187.867 186.054 187.666 185.93 187.445 185.856L186.262 185.461C186.113 185.411 185.984 185.315 185.892 185.188C185.801 185.06 185.751 184.907 185.751 184.75C185.751 184.593 185.801 184.44 185.892 184.312C185.984 184.185 186.113 184.089 186.262 184.039L187.445 183.644C187.892 183.494 188.244 183.144 188.393 182.696L188.788 181.513C188.838 181.364 188.934 181.234 189.061 181.142C189.189 181.05 189.342 181 189.499 181Z" fill="white"/>
<path d="M227.433 164.472C224.269 156.915 218.924 150.462 212.073 145.928C205.223 141.394 197.175 138.983 188.948 139C180.721 139.017 172.684 141.461 165.852 146.024C159.021 150.586 153.703 157.061 150.57 164.631" stroke="black" stroke-width="10" stroke-linecap="round"/>
<path d="M151 140L231 140" stroke="black" stroke-width="12" stroke-linecap="round"/>
<ellipse cx="311" cy="180.385" rx="40" ry="39.6116" fill="white"/>
<circle cx="311" cy="181" r="21" fill="black"/>
<path fill-rule="evenodd" clip-rule="evenodd" d="M303.999 170.5C304.162 170.5 304.321 170.553 304.451 170.651C304.581 170.749 304.676 170.887 304.72 171.044L305.533 173.89C305.709 174.503 306.037 175.061 306.488 175.512C306.938 175.963 307.497 176.291 308.109 176.466L310.955 177.279C311.112 177.324 311.25 177.418 311.348 177.549C311.446 177.679 311.499 177.837 311.499 178C311.499 178.163 311.446 178.321 311.348 178.451C311.25 178.582 311.112 178.676 310.955 178.721L308.109 179.534C307.497 179.709 306.938 180.037 306.488 180.488C306.037 180.939 305.709 181.497 305.533 182.11L304.72 184.956C304.676 185.113 304.581 185.25 304.451 185.348C304.321 185.446 304.162 185.499 303.999 185.499C303.837 185.499 303.678 185.446 303.548 185.348C303.418 185.25 303.323 185.113 303.278 184.956L302.465 182.11C302.29 181.497 301.962 180.939 301.511 180.488C301.061 180.037 300.502 179.709 299.889 179.534L297.043 178.721C296.887 178.676 296.749 178.582 296.651 178.451C296.553 178.321 296.5 178.163 296.5 178C296.5 177.837 296.553 177.679 296.651 177.549C296.749 177.418 296.887 177.324 297.043 177.279L299.889 176.466C300.502 176.291 301.061 175.963 301.511 175.512C301.962 175.061 302.29 174.503 302.465 173.89L303.278 171.044C303.323 170.887 303.418 170.749 303.548 170.651C303.678 170.553 303.836 170.5 303.999 170.5ZM312.999 167.5C313.167 167.5 313.329 167.556 313.461 167.659C313.593 167.762 313.687 167.906 313.727 168.068L313.985 169.104C314.221 170.044 314.955 170.778 315.895 171.014L316.931 171.272C317.094 171.312 317.239 171.406 317.342 171.538C317.445 171.67 317.501 171.832 317.501 172C317.501 172.168 317.445 172.33 317.342 172.462C317.239 172.594 317.094 172.688 316.931 172.728L315.895 172.986C314.955 173.222 314.221 173.956 313.985 174.896L313.727 175.932C313.687 176.095 313.594 176.239 313.462 176.342C313.33 176.446 313.167 176.502 312.999 176.502C312.832 176.502 312.669 176.446 312.537 176.342C312.405 176.239 312.312 176.095 312.271 175.932L312.013 174.896C311.898 174.434 311.659 174.013 311.323 173.676C310.987 173.34 310.565 173.101 310.103 172.986L309.067 172.728C308.905 172.688 308.76 172.594 308.657 172.462C308.554 172.33 308.498 172.168 308.498 172C308.498 171.832 308.554 171.67 308.657 171.538C308.76 171.406 308.905 171.312 309.067 171.272L310.103 171.014C310.565 170.899 310.987 170.66 311.323 170.324C311.659 169.987 311.898 169.566 312.013 169.104L312.271 168.068C312.312 167.906 312.406 167.762 312.538 167.659C312.67 167.556 312.832 167.5 312.999 167.5ZM311.499 181C311.657 181 311.811 181.049 311.938 181.141C312.066 181.234 312.162 181.364 312.211 181.513L312.605 182.696C312.755 183.143 313.105 183.495 313.553 183.644L314.736 184.039C314.885 184.089 315.015 184.185 315.107 184.312C315.198 184.44 315.248 184.593 315.248 184.75C315.248 184.907 315.198 185.06 315.107 185.188C315.015 185.315 314.885 185.411 314.736 185.461L313.553 185.856C313.106 186.006 312.754 186.356 312.605 186.804L312.21 187.987C312.16 188.136 312.065 188.265 311.937 188.357C311.81 188.449 311.657 188.498 311.499 188.498C311.342 188.498 311.189 188.449 311.062 188.357C310.934 188.265 310.838 188.136 310.788 187.987L310.393 186.804C310.32 186.583 310.196 186.383 310.031 186.218C309.867 186.054 309.666 185.93 309.445 185.856L308.262 185.461C308.113 185.411 307.984 185.315 307.892 185.188C307.801 185.06 307.751 184.907 307.751 184.75C307.751 184.593 307.801 184.44 307.892 184.312C307.984 184.185 308.113 184.089 308.262 184.039L309.445 183.644C309.892 183.494 310.244 183.144 310.393 182.696L310.788 181.513C310.838 181.364 310.934 181.234 311.061 181.142C311.189 181.05 311.342 181 311.499 181Z" fill="white"/>
<path d="M349.433 164.472C346.269 156.915 340.924 150.462 334.073 145.928C327.223 141.394 319.175 138.983 310.948 139C302.721 139.017 294.684 141.461 287.852 146.024C281.021 150.586 275.703 157.061 272.57 164.631" stroke="black" stroke-width="10" stroke-linecap="round"/>
<path d="M273 140L353 140" stroke="black" stroke-width="12" stroke-linecap="round"/>
<circle cx="250" cy="251" r="16" fill="black"/>
<rect x="234" y="239" width="32" height="22" rx="11" fill="black"/>
<rect x="238" y="239" width="24" height="24" rx="12" fill="#D9D9D9"/>
<rect x="241" y="248" width="18" height="18" rx="9" fill="#E14949"/>
<rect x="238" y="225" width="24" height="38" rx="12" fill="#D9D9D9"/>
<circle cx="150" cy="250" r="32" fill="url(#paint2_radial_1655_8)"/>
<circle cx="350" cy="250" r="32" fill="url(#paint3_radial_1655_8)"/>
<ellipse cx="85.6973" cy="114.598" rx="32.5382" ry="50.251" transform="rotate(38.347 85.6973 114.598)" fill="url(#paint4_radial_1655_8)"/>
<ellipse cx="35.2383" cy="193.25" rx="20.2373" ry="31.2539" transform="rotate(12.0131 35.2383 193.25)" fill="url(#paint5_radial_1655_8)"/>
<circle cx="359" cy="118" r="19" stroke="#8000AD" stroke-width="4"/>
<path d="M344.659 135V130.619L362.08 106.176H344.625V100.091H371.352V104.472L353.915 128.915H371.386V135H344.659Z" fill="#8F00E6"/>
<defs>
<filter id="filter0_iii_1655_8" x="0" y="0" width="540" height="540" filterUnits="userSpaceOnUse" color-interpolation-filters="sRGB">
<feFlood flood-opacity="0" result="BackgroundImageFix"/>
<feBlend mode="normal" in="SourceGraphic" in2="BackgroundImageFix" result="shape"/>
<feColorMatrix in="SourceAlpha" type="matrix" values="0 0 0 0 0 0 0 0 0 0 0 0 0 0 0 0 0 0 127 0" result="hardAlpha"/>
<feOffset dx="40" dy="40"/>
<feGaussianBlur stdDeviation="20"/>
<feComposite in2="hardAlpha" operator="arithmetic" k2="-1" k3="1"/>
<feColorMatrix type="matrix" values="0 0 0 0 0.795521 0 0 0 0 0.384636 0 0 0 0 0.00535744 0 0 0 0.25 0"/>
<feBlend mode="normal" in2="shape" result="effect1_innerShadow_1655_8"/>
<feColorMatrix in="SourceAlpha" type="matrix" values="0 0 0 0 0 0 0 0 0 0 0 0 0 0 0 0 0 0 127 0" result="hardAlpha"/>
<feMorphology radius="10" operator="dilate" in="SourceAlpha" result="effect2_innerShadow_1655_8"/>
<feOffset dx="10" dy="10"/>
<feGaussianBlur stdDeviation="5"/>
<feComposite in2="hardAlpha" operator="arithmetic" k2="-1" k3="1"/>
<feColorMatrix type="matrix" values="0 0 0 0 1 0 0 0 0 1 0 0 0 0 1 0 0 0 1 0"/>
<feBlend mode="normal" in2="effect1_innerShadow_1655_8" result="effect2_innerShadow_1655_8"/>
<feColorMatrix in="SourceAlpha" type="matrix" values="0 0 0 0 0 0 0 0 0 0 0 0 0 0 0 0 0 0 127 0" result="hardAlpha"/>
<feOffset dy="20"/>
<feGaussianBlur stdDeviation="17.95"/>
<feComposite in2="hardAlpha" operator="arithmetic" k2="-1" k3="1"/>
<feColorMatrix type="matrix" values="0 0 0 0 0 0 0 0 0 0 0 0 0 0 0 0 0 0 0.25 0"/>
<feBlend mode="normal" in2="effect2_innerShadow_1655_8" result="effect3_innerShadow_1655_8"/>
</filter>
<radialGradient id="paint0_radial_1655_8" cx="0" cy="0" r="1" gradientUnits="userSpaceOnUse" gradientTransform="translate(278 280) rotate(97.2532) scale(221.775)">
<stop offset="0.609375" stop-color="#FEE502"/>
<stop offset="0.885417" stop-color="#FFDF35" stop-opacity="0"/>
</radialGradient>
<radialGradient id="paint1_radial_1655_8" cx="0" cy="0" r="1" gradientUnits="userSpaceOnUse" gradientTransform="translate(287 407) rotate(71.9692) scale(358.611 386.382)">
<stop offset="0.0205907" stop-color="#FFF50A" stop-opacity="0"/>
<stop offset="0.46229" stop-color="#E3A915"/>
</radialGradient>
<radialGradient id="paint2_radial_1655_8" cx="0" cy="0" r="1" gradientUnits="userSpaceOnUse" gradientTransform="translate(150 250) rotate(90) scale(32)">
<stop offset="0.526042" stop-color="#F20000" stop-opacity="0.21"/>
<stop offset="1" stop-color="#D9D9D9" stop-opacity="0"/>
</radialGradient>
<radialGradient id="paint3_radial_1655_8" cx="0" cy="0" r="1" gradientUnits="userSpaceOnUse" gradientTransform="translate(350 250) rotate(90) scale(32)">
<stop offset="0.526042" stop-color="#F20000" stop-opacity="0.21"/>
<stop offset="1" stop-color="#D9D9D9" stop-opacity="0"/>
</radialGradient>
<radialGradient id="paint4_radial_1655_8" cx="0" cy="0" r="1" gradientUnits="userSpaceOnUse" gradientTransform="translate(85.6973 114.598) rotate(89.9673) scale(49.6413 32.1433)">
<stop stop-color="#D9D9D9"/>
<stop offset="1" stop-color="#D9D9D9" stop-opacity="0"/>
</radialGradient>
<radialGradient id="paint5_radial_1655_8" cx="0" cy="0" r="1" gradientUnits="userSpaceOnUse" gradientTransform="translate(35.2382 193.25) rotate(89.9673) scale(30.8746 19.9917)">
<stop stop-color="#D9D9D9"/>
<stop offset="1" stop-color="#D9D9D9" stop-opacity="0"/>
</radialGradient>
</defs>
</svg>
