<svg width="885" height="1059" viewBox="0 0 885 1059" fill="none" xmlns="http://www.w3.org/2000/svg">
<rect x="527.5" y="961.5" width="115" height="52" rx="26" transform="rotate(-90 527.5 961.5)" fill="#AF7128" stroke="black" stroke-width="6"/>
<path d="M551.674 948.205C551.674 946.548 550.331 945.205 548.674 945.205C547.017 945.205 545.674 946.548 545.674 948.205H551.674ZM551.674 960.205V948.205H545.674V960.205H551.674Z" fill="black"/>
<path d="M564.34 948.205C564.34 946.548 562.997 945.205 561.34 945.205C559.683 945.205 558.34 946.548 558.34 948.205H564.34ZM564.34 960.205V948.205H558.34V960.205H564.34Z" fill="black"/>
<path d="M505.653 673.433C497.081 659.25 498.905 640.554 511.132 628.327C525.52 613.94 548.863 613.957 563.272 628.365C573.425 638.518 576.432 653.107 572.289 665.874C585.36 669.791 597.679 676.914 608.007 687.243L622.17 701.405C632.452 711.688 639.558 723.942 643.486 736.947C656.23 732.849 670.773 735.866 680.901 745.995C695.31 760.403 695.327 783.747 680.94 798.135C668.761 810.313 650.166 812.171 636.005 803.716C632.332 810.152 627.75 816.21 622.258 821.701L575.193 868.767L497.61 946.35C495.633 948.326 493.887 950.521 492.404 952.891L476.643 978.088C473.438 983.213 469.893 988.552 464.259 990.743C456.37 993.811 447.061 992.155 440.684 985.778L427.569 973.931L420.165 967.072L411.161 957.832C402.556 949.228 405.326 937.624 410.145 927.223L423.459 904.162C421.411 902.755 418.748 899.468 416.939 897.659C415.376 896.096 413.889 892.872 412.627 891.128L397.298 912.3C390.786 920.718 377.058 922.152 368.454 913.547L342.25 888.024C333.646 879.42 326.787 866.972 337.273 851.254L383.623 791.243C382.789 788.54 382.339 785.668 382.337 782.692L382.291 719.646C382.279 703.618 395.263 690.634 411.291 690.646C427.319 690.658 440.321 703.66 440.333 719.688L440.344 734.522L487.711 687.155C493.191 681.675 499.233 677.101 505.653 673.433Z" fill="#AF7128"/>
<path d="M575.193 868.767L622.258 821.701C627.75 816.21 632.332 810.152 636.005 803.716C650.166 812.171 668.761 810.313 680.94 798.135C695.327 783.747 695.31 760.403 680.901 745.995C670.773 735.866 656.23 732.849 643.486 736.947C639.558 723.942 632.452 711.688 622.17 701.405L608.007 687.243C597.679 676.914 585.36 669.791 572.289 665.874C576.432 653.107 573.425 638.518 563.272 628.365C548.863 613.957 525.52 613.94 511.132 628.327C498.905 640.554 497.081 659.25 505.653 673.433C499.233 677.101 493.191 681.675 487.711 687.155L440.344 734.522L440.333 719.688C440.321 703.66 427.319 690.658 411.291 690.646C395.263 690.634 382.279 703.618 382.291 719.646L382.337 782.692C382.339 785.668 382.789 788.54 383.623 791.243L337.273 851.254C326.787 866.972 333.646 879.42 342.25 888.024L368.454 913.547C377.058 922.152 390.786 920.718 397.298 912.3L412.627 891.128C413.889 892.872 415.376 896.096 416.939 897.659C418.748 899.468 421.411 902.755 423.459 904.162L410.145 927.223C405.326 937.624 402.556 949.228 411.161 957.832L420.165 967.072L427.569 973.931L440.684 985.778C447.061 992.155 456.369 993.811 464.259 990.743C469.893 988.552 473.438 983.213 476.643 978.088L492.404 952.891C493.887 950.521 495.633 948.326 497.61 946.35L537.425 906.535" stroke="black" stroke-width="6" stroke-linecap="round" stroke-linejoin="round"/>
<path d="M411.783 705.187C411.784 706.844 413.128 708.188 414.785 708.189C416.442 708.191 417.784 706.848 417.783 705.192L411.783 705.187ZM411.774 693.178L411.783 705.187L417.783 705.192L417.774 693.183L411.774 693.178Z" fill="black"/>
<path d="M399.676 705.178C399.677 706.835 401.021 708.179 402.678 708.181C404.335 708.182 405.677 706.84 405.676 705.183L399.676 705.178ZM399.667 693.17L399.676 705.178L405.676 705.183L405.667 693.174L399.667 693.17Z" fill="black"/>
<rect x="541.738" y="702.92" width="88.4998" height="13.25" transform="rotate(45 541.738 702.92)" fill="#FF1E1E"/>
<path fill-rule="evenodd" clip-rule="evenodd" d="M650.156 753.094C652.682 775.976 643.729 799.203 629.335 813.597L585.68 769.942C595.284 760.215 595.246 744.545 585.566 734.865L572.372 721.671C562.692 711.991 547.022 711.953 537.295 721.557L493.855 678.117C508.249 663.723 531.476 654.77 554.358 657.296C577.239 659.821 600.187 671.333 618.153 689.299C636.119 707.265 647.631 730.213 650.156 753.094Z" fill="black"/>
<ellipse cx="582.096" cy="803.26" rx="8.09111" ry="8.0793" transform="rotate(45 582.096 803.26)" fill="black"/>
<ellipse cx="505.202" cy="726.366" rx="8.09111" ry="8.0793" transform="rotate(45 505.202 726.366)" fill="black"/>
<path d="M548.046 789.863C542.241 795.669 528.719 795.215 520.946 787.442C513.173 779.669 512.719 766.147 518.525 760.341C524.33 754.536 534.196 758.646 541.969 766.419C549.742 774.192 553.852 784.058 548.046 789.863Z" fill="black"/>
<path d="M430.374 955.873L421.888 964.358" stroke="black" stroke-width="6" stroke-linecap="round"/>
<path d="M447.369 972.869L438.884 981.354" stroke="black" stroke-width="6" stroke-linecap="round"/>
<path d="M357.435 882.935L348.95 891.42" stroke="black" stroke-width="6" stroke-linecap="round"/>
<path d="M374.43 899.93L365.945 908.415" stroke="black" stroke-width="6" stroke-linecap="round"/>
<path d="M426.5 821.5L421.5 445.5" stroke="black" stroke-width="6" stroke-linecap="round"/>
<circle cx="421.5" cy="273.5" r="169" fill="#FF1E1E" stroke="black" stroke-width="6"/>
<path d="M405.5 444.5H437L446.5 464.5H396.5L405.5 444.5Z" fill="#F20000" fill-opacity="0.5" stroke="black" stroke-width="6" stroke-linejoin="round"/>
<path d="M380 757L442 715" stroke="black" stroke-width="6" stroke-linecap="round"/>
<path d="M384.118 142.738C357.611 150.316 334.033 165.771 316.509 187.054C298.985 208.337 288.344 234.443 285.995 261.912" stroke="white" stroke-opacity="0.75" stroke-width="30" stroke-linecap="round" stroke-linejoin="round"/>
<g clip-path="url(#clip0_1205_4)">
<path d="M229.194 443L419.538 113.004L609.881 443H229.194Z" fill="#F20000" stroke="black" stroke-width="6"/>
<path d="M404.07 215L326 352" stroke="white" stroke-opacity="0.74" stroke-width="27" stroke-linecap="round"/>
</g>
<g clip-path="url(#clip1_1205_4)">
<path fill-rule="evenodd" clip-rule="evenodd" d="M462.718 179.394L558 419L344.08 447H617.075L462.718 179.394Z" fill="#B20909"/>
<path d="M406.07 216L328 353" stroke="white" stroke-opacity="0.74" stroke-width="27" stroke-linecap="round"/>
<circle cx="424" cy="285" r="31" fill="#DD7373"/>
<path fill-rule="evenodd" clip-rule="evenodd" d="M419.358 312.983C436.478 312.983 450.358 299.103 450.358 281.983C450.358 271.732 445.382 262.644 437.715 257C448.15 261.99 455.358 272.644 455.358 284.983C455.358 302.103 441.478 315.983 424.358 315.983C417.487 315.983 411.139 313.748 406 309.965C410.045 311.899 414.575 312.983 419.358 312.983Z" fill="black"/>
<circle cx="445.736" cy="380.736" r="14.7361" fill="#DD7373"/>
<path fill-rule="evenodd" clip-rule="evenodd" d="M443.529 394.037C451.668 394.037 458.265 387.439 458.265 379.301C458.265 374.428 455.9 370.107 452.255 367.424C457.216 369.796 460.642 374.861 460.642 380.727C460.642 388.865 454.045 395.463 445.906 395.463C442.641 395.463 439.623 394.401 437.181 392.603C439.103 393.522 441.256 394.037 443.529 394.037Z" fill="black"/>
<circle cx="317" cy="395" r="15" fill="#DD7373"/>
<path fill-rule="evenodd" clip-rule="evenodd" d="M314.754 408.54C323.038 408.54 329.754 401.824 329.754 393.54C329.754 388.58 327.346 384.182 323.636 381.452C328.685 383.866 332.173 389.022 332.173 394.992C332.173 403.276 325.457 409.992 317.173 409.992C313.849 409.992 310.777 408.91 308.29 407.08C310.248 408.016 312.439 408.54 314.754 408.54Z" fill="black"/>
</g>
<defs>
<clipPath id="clip0_1205_4">
<rect width="396" height="339" fill="white" transform="translate(224 106)"/>
</clipPath>
<clipPath id="clip1_1205_4">
<rect width="396" height="339" fill="white" transform="translate(226 107)"/>
</clipPath>
</defs>
</svg>
